<?xml version="1.0" encoding="UTF-8"?>
<!DOCTYPE svg PUBLIC "-//W3C//DTD SVG 1.1//EN" "http://www.w3.org/Graphics/SVG/1.1/DTD/svg11.dtd">
<svg xmlns="http://www.w3.org/2000/svg" version="1.1" width="318px" height="364px" style="shape-rendering:geometricPrecision; text-rendering:geometricPrecision; image-rendering:optimizeQuality; fill-rule:evenodd; clip-rule:evenodd" xmlns:xlink="http://www.w3.org/1999/xlink">
<g><path style="opacity:1" fill="#414141" d="M 151.5,40.5 C 152.583,40.5394 153.583,40.8728 154.5,41.5C 194.359,79.6033 234.026,117.937 273.5,156.5C 262.186,157.499 250.853,157.832 239.5,157.5C 239.921,185.861 239.421,214.194 238,242.5C 229.447,285.387 203.614,310.22 160.5,317C 138.076,318.757 117.743,313.257 99.5,300.5C 87.8849,290.042 78.7182,277.709 72,263.5C 70.0375,258.58 68.3708,253.58 67,248.5C 65.5645,218.196 65.0645,187.863 65.5,157.5C 63.5,157.5 61.5,157.5 59.5,157.5C 49.4422,158.14 39.7755,157.473 30.5,155.5C 46.7955,141.872 62.1288,127.205 76.5,111.5C 78.1405,110.853 79.4739,109.853 80.5,108.5C 81.1667,150.167 81.8333,191.833 82.5,233.5C 83.5521,250.93 90.0521,265.93 102,278.5C 106.114,282.461 110.614,285.794 115.5,288.5C 116.965,289.737 118.632,290.737 120.5,291.5C 120.56,292.043 120.893,292.376 121.5,292.5C 122.5,269.843 122.833,247.176 122.5,224.5C 126.458,207.825 137.125,199.158 154.5,198.5C 167.369,200.548 176.202,207.548 181,219.5C 182.457,241.78 182.957,264.114 182.5,286.5C 182.215,288.288 182.548,289.955 183.5,291.5C 208.581,277.887 221.581,256.72 222.5,228C 221.574,200.288 208.907,180.121 184.5,167.5C 184.047,166.542 183.381,165.708 182.5,165C 162.877,156.541 143.21,156.374 123.5,164.5C 122.502,132.671 122.168,100.671 122.5,68.5C 131.836,58.8305 141.503,49.4971 151.5,40.5 Z"/></g>
<g><path style="opacity:1" fill="#cccccc" d="M 151.5,40.5 C 141.503,49.4971 131.836,58.8305 122.5,68.5C 121.502,99.3288 121.169,130.329 121.5,161.5C 119.883,162.038 118.216,162.371 116.5,162.5C 116.333,130.165 116.5,97.8316 117,65.5C 126.497,57.003 135.664,48.1697 144.5,39C 146.922,38.8648 149.255,39.3648 151.5,40.5 Z"/></g>
<g><path style="opacity:1" fill="#606060" d="M 122.5,68.5 C 122.168,100.671 122.502,132.671 123.5,164.5C 123.44,165.043 123.107,165.376 122.5,165.5C 121.571,164.311 121.238,162.978 121.5,161.5C 121.169,130.329 121.502,99.3288 122.5,68.5 Z"/></g>
<g><path style="opacity:1" fill="#a7a7a7" d="M 80.5,108.5 C 80.56,107.957 80.8933,107.624 81.5,107.5C 82.4999,149.495 82.8332,191.495 82.5,233.5C 81.8333,191.833 81.1667,150.167 80.5,108.5 Z"/></g>
<g><path style="opacity:1" fill="#cacaca" d="M 76.5,111.5 C 62.1288,127.205 46.7955,141.872 30.5,155.5C 28.4727,155.662 26.4727,155.495 24.5,155C 41.6932,138.472 58.8599,121.972 76,105.5C 76.2254,107.791 76.3921,109.791 76.5,111.5 Z"/></g>
<g><path style="opacity:1" fill="#cbcbcb" d="M 184.5,167.5 C 208.907,180.121 221.574,200.288 222.5,228C 221.581,256.72 208.581,277.887 183.5,291.5C 182.548,289.955 182.215,288.288 182.5,286.5C 186.31,283.89 190.31,281.39 194.5,279C 217.906,254.633 223.072,226.8 210,195.5C 207.084,190.085 203.584,185.085 199.5,180.5C 194.543,175.895 189.543,171.562 184.5,167.5 Z"/></g>
<g><path style="opacity:1" fill="#cdcdcd" d="M 154.5,198.5 C 137.125,199.158 126.458,207.825 122.5,224.5C 121.833,246.833 121.167,269.167 120.5,291.5C 118.632,290.737 116.965,289.737 115.5,288.5C 116.332,267.004 116.832,245.337 117,223.5C 119.949,207.091 129.783,198.091 146.5,196.5C 149.486,196.382 152.152,197.048 154.5,198.5 Z"/></g>
<g><path style="opacity:1" fill="#9f9f9f" d="M 122.5,224.5 C 122.833,247.176 122.5,269.843 121.5,292.5C 120.893,292.376 120.56,292.043 120.5,291.5C 121.167,269.167 121.833,246.833 122.5,224.5 Z"/></g>
<g><path style="opacity:1" fill="#cbcbcb" d="M 59.5,157.5 C 61.5,157.5 63.5,157.5 65.5,157.5C 65.0645,187.863 65.5645,218.196 67,248.5C 68.3708,253.58 70.0375,258.58 72,263.5C 78.7182,277.709 87.8849,290.042 99.5,300.5C 98.5041,300.414 97.6708,300.748 97,301.5C 92.0207,296.189 86.6874,291.189 81,286.5C 77.6377,281.97 74.4711,277.303 71.5,272.5C 65.2031,261.321 61.3698,249.321 60,236.5C 59.5,210.169 59.3334,183.835 59.5,157.5 Z"/></g>
</svg>
