<svg width="30" height="30" viewBox="0 0 30 30" fill="none" xmlns="http://www.w3.org/2000/svg">
<path d="M9.49371 20.1264V11.9619H7.59497V9.87326H12.057V20.1264H9.49371ZM21.8355 12.5315C21.8355 13.3859 21.3608 14.2403 20.5064 14.6201C21.6456 15.0948 22.3102 16.0441 22.3102 17.1834C22.3102 18.9872 20.6962 20.2214 18.1329 20.2214C15.5697 20.2214 13.9557 19.0821 13.9557 17.2783C13.9557 16.1391 14.7152 15.0948 15.8545 14.6201C15 14.1454 14.4304 13.291 14.4304 12.4365C14.4304 10.8226 15.8545 9.77832 18.038 9.77832C20.4114 9.77832 21.8355 10.8226 21.8355 12.5315ZM16.4241 16.9935C16.4241 17.8479 16.9937 18.3226 18.1329 18.3226C19.2722 18.3226 19.8418 17.8479 19.8418 16.9935C19.8418 16.1391 19.1773 15.6644 18.1329 15.6644C17.0886 15.6644 16.4241 16.1391 16.4241 16.9935ZM16.7089 12.6264C16.7089 13.3859 17.2785 13.7657 18.2279 13.7657C19.1773 13.7657 19.7469 13.3859 19.7469 12.6264C19.7469 11.8669 19.1773 11.4872 18.2279 11.4872C17.2785 11.4872 16.7089 11.8669 16.7089 12.6264Z" fill="white"/>
<path d="M26.6772 11.0127C27.1519 12.2468 27.3418 13.5759 27.3418 15C27.3418 21.8354 21.8354 27.3418 15 27.3418C8.16456 27.3418 2.65823 21.8354 2.65823 15C2.65823 8.16456 8.16456 2.65823 15 2.65823C16.3291 2.65823 17.6582 2.8481 18.9873 3.32278V0.56962C17.6582 0.189873 16.3291 0 15 0C6.74051 0 0 6.74051 0 15C0 23.2595 6.74051 30 15 30C23.2595 30 30 23.2595 30 15C30 13.6709 29.8101 12.3418 29.4304 11.0127H26.6772Z" fill="white"/>
<path d="M26.0126 3.98726V1.13916H23.924V3.98726H21.0759V6.07587H23.924V8.92397H26.0126V6.07587H28.8607V3.98726H26.0126Z" fill="white"/>
</svg>
