<?xml version="1.0" standalone="no"?>
<!DOCTYPE svg PUBLIC "-//W3C//DTD SVG 20010904//EN"
 "http://www.w3.org/TR/2001/REC-SVG-20010904/DTD/svg10.dtd">
<svg version="1.0" xmlns="http://www.w3.org/2000/svg"
 width="900.000000pt" height="520.000000pt" viewBox="0 0 900.000000 520.000000"
 preserveAspectRatio="xMidYMid meet">

<g transform="translate(0.000000,520.000000) scale(0.100000,-0.100000)"
fill="#000000" stroke="none">
<path d="M4255 4991 c-50 -21 -60 -46 -63 -168 l-4 -114 -226 3 c-252 3 -262
6 -359 84 -104 85 -219 119 -371 112 -91 -4 -106 -8 -188 -48 -192 -93 -304
-267 -304 -470 1 -280 218 -518 490 -537 134 -9 255 28 375 117 116 86 44 80
895 80 851 0 779 6 895 -80 182 -134 384 -156 575 -62 74 36 199 160 233 232
80 166 74 370 -14 516 -100 165 -261 254 -459 254 -131 0 -239 -37 -333 -114
-97 -78 -107 -81 -359 -84 l-226 -3 -4 115 c-3 111 -4 117 -31 143 l-27 28
-238 2 c-130 1 -246 -2 -257 -6z m345 -241 l0 -40 -100 0 -100 0 0 40 0 40
100 0 100 0 0 -40z m-1257 -91 c20 -5 65 -30 100 -54 82 -59 160 -99 233 -122
55 -17 110 -18 824 -18 714 0 769 1 824 18 74 23 151 63 234 122 73 52 128 69
199 62 103 -11 189 -72 235 -166 31 -64 30 -167 -1 -233 -27 -56 -104 -130
-157 -153 -22 -9 -66 -17 -100 -17 -71 -1 -127 21 -206 80 -29 22 -75 51 -103
64 -110 54 -91 53 -925 53 -834 0 -815 1 -925 -53 -27 -13 -74 -42 -103 -64
-141 -105 -271 -108 -385 -8 -148 129 -135 338 27 448 75 50 149 64 229 41z"/>
<path d="M4190 3596 l0 -384 -37 -12 c-65 -21 -209 -99 -275 -149 -35 -27 -96
-83 -135 -125 l-71 -76 -456 0 -456 0 0 375 0 375 -29 32 -29 33 -352 0 -352
0 -29 -33 -29 -32 0 -1370 0 -1370 29 -32 29 -33 352 0 352 0 29 33 29 32 0
375 0 375 456 0 455 0 79 -84 c409 -431 1091 -431 1500 0 l79 84 54 0 c232 0
408 -149 437 -370 5 -41 10 -258 10 -482 l0 -408 29 -32 29 -33 557 0 557 0
29 33 30 34 -4 536 c-3 512 -4 542 -26 637 -98 438 -346 805 -710 1049 -264
178 -537 266 -870 283 l-134 6 -66 70 c-36 39 -94 91 -129 118 -66 50 -210
128 -274 149 l-38 12 0 384 0 384 -105 0 -105 0 0 -362 0 -363 -100 0 -100 0
0 363 0 362 -105 0 -105 0 0 -384z m-1640 -1366 l0 -1220 -200 0 -200 0 0
1220 0 1220 200 0 200 0 0 -1220z m2120 795 c263 -62 483 -246 581 -486 217
-534 -176 -1119 -751 -1119 -449 0 -810 361 -810 810 0 229 86 428 254 587
158 150 333 221 551 222 65 0 136 -5 175 -14z m-1125 -402 c-57 -148 -84 -345
-67 -496 10 -88 41 -220 67 -279 7 -17 -16 -18 -389 -18 l-396 0 0 405 0 405
396 0 c373 0 396 -1 389 -17z m2070 2 c184 -29 350 -89 503 -180 124 -72 200
-133 307 -241 205 -207 345 -471 401 -757 13 -65 17 -170 21 -520 l5 -437
-405 0 -406 0 -3 413 -3 412 -31 85 c-38 107 -87 182 -169 259 -93 86 -259
161 -358 161 -23 0 -28 4 -24 18 68 204 86 338 69 495 -9 86 -41 221 -67 290
-6 14 -1 17 31 17 22 0 80 -7 129 -15z"/>
<path d="M4040 2015 c-49 -26 -67 -92 -40 -145 28 -56 141 -153 223 -193 78
-39 196 -67 277 -67 146 0 307 63 415 162 75 69 99 109 96 157 -3 45 -16 68
-51 86 -57 29 -83 21 -165 -56 -43 -40 -102 -83 -133 -98 -50 -23 -69 -26
-162 -26 -93 0 -111 3 -163 27 -32 15 -86 54 -120 86 -89 85 -122 98 -177 67z"/>
</g>
</svg>
