<svg width="2783" height="703" viewBox="0 0 2783 703" fill="none" xmlns="http://www.w3.org/2000/svg">
<path d="M2029.48 293.166L2080.84 293.934L2073.69 343.824L2066.07 394.591L2063.53 411.119L2062.32 420.125L2059.57 438.998L2064.64 436.321L2077.93 434.695C2106.76 436.634 2119.74 425.75 2133.58 418.454C2144.13 412.898 2152.4 409.574 2159.45 408.594C2171.22 406.961 2179.62 411.823 2189.62 423.634C2204.39 441.096 2216.17 446.382 2235.09 444.065C2250.52 442.175 2260.27 438.338 2290.27 422.3C2311.19 411.118 2335.57 405.274 2348.15 408.429C2352.58 409.542 2361.76 414.959 2368.54 420.465C2394.84 441.828 2399.31 442.589 2458.71 435.955C2503.94 430.901 2505.65 430.891 2512.01 435.441C2523.35 443.55 2539.39 449.83 2554.61 452.126C2575.09 455.213 2615.14 450.609 2637.25 442.626C2660.57 434.205 2670.42 434.577 2682.36 444.342C2687.55 448.583 2693.57 451.853 2695.73 451.608C2698.49 451.296 2701.74 455.088 2706.6 464.312C2710.42 471.543 2722.2 493.279 2732.79 512.616C2703.09 443.608 2676.22 372.981 2649.42 309.042L2634.65 310.514C2626.25 311.349 2614.26 311.237 2608.01 310.255C2601.76 309.274 2588.19 303.924 2577.85 298.364C2567.51 292.804 2555 287.387 2550.05 286.329C2540.34 284.25 2522.64 286.998 2490.75 295.539C2475.98 299.493 2466.38 300.656 2450.74 300.399C2422.46 299.933 2406.3 295.178 2383.96 280.732C2358.54 264.302 2351.71 262.932 2337.11 271.336C2317.77 282.47 2310.17 281.416 2293.38 265.27C2283.46 255.736 2283.02 255.573 2272.25 257.825C2266.21 259.09 2255.85 263.319 2249.25 267.219C2239.24 273.129 2233.38 274.76 2214.07 277.001C2192.86 279.461 2189.78 279.228 2177.94 274.315C2170.52 271.233 2162.15 265.558 2158.29 260.987C2142.93 242.783 2139.62 240.73 2127.73 242.075C2119.34 243.024 2114.16 245.37 2106.27 251.778C2093.11 262.469 2085.63 263.332 2057.97 257.365C2029.25 251.169 2024.19 250.317 2012.64 252.036L2006.11 292.985L2029.48 293.166ZM2006.93 455.742C2007.01 456.453 2007.06 456.97 2007.14 457.744C2009.67 480.112 2012.69 555.462 2012.89 601.551C2012.97 620.864 2013.18 636.848 2013.35 637.071L2013.36 637.07C2013.19 636.847 2012.98 620.854 2012.9 601.541C2012.69 555.452 2009.68 480.111 2007.15 457.743C2007.07 456.985 2007.01 456.446 2006.93 455.742ZM2231.04 565.25C2228.17 565.604 2225.14 566.188 2221.95 567.01C2237.9 562.903 2249.74 564.694 2258.83 572.206C2258.83 572.205 2258.84 572.206 2258.83 572.206C2251.56 566.197 2242.53 563.852 2231.04 565.259L2231.04 565.25ZM2261.81 575.37C2265.4 579.698 2270.6 587.162 2275.01 594.487C2280.86 604.18 2284.99 610.172 2289.09 613.543C2284.99 610.172 2280.87 604.179 2275.02 594.486C2270.61 587.164 2265.4 579.701 2261.81 575.37ZM2097.16 603.726C2089.45 605.343 2082.55 607.058 2076.03 609.065C2082.55 607.056 2089.44 605.344 2097.16 603.726ZM2065.92 612.491C2055.91 616.201 2045.95 620.836 2033.81 627.09C2024.29 631.993 2017.3 635.404 2015.09 636.294C2017.31 635.401 2024.3 631.999 2033.81 627.1C2045.95 620.846 2055.92 616.202 2065.92 612.491ZM2463.21 569.563C2465.72 571.758 2467.93 574.274 2469.83 577.108C2471.99 580.347 2473.96 583.008 2476.08 585.152C2473.97 583.009 2472 580.344 2469.84 577.107C2467.94 574.271 2465.72 571.759 2463.21 569.563ZM2330.89 604.686C2326.12 607.909 2322.08 610.322 2318.43 612.117C2322.08 610.323 2326.12 607.911 2330.89 604.686ZM2486.18 591.085C2495.63 593.657 2510.71 592.231 2541 588.308C2568.32 584.769 2590.05 583.022 2595.11 583.964C2599.77 584.83 2608.08 589.018 2613.59 593.278C2608.08 589.018 2599.77 584.821 2595.11 583.955C2590.05 583.013 2568.32 584.76 2541 588.298C2510.7 592.223 2495.62 593.658 2486.18 591.085ZM2671.45 582.377C2665.8 583.043 2660.34 584.789 2654.58 587.68C2660.34 584.789 2665.79 583.03 2671.45 582.377ZM2641.63 595.194C2634.51 599.196 2629.79 600.64 2625.09 599.633C2629.78 600.639 2634.51 599.196 2641.63 595.194ZM2716.11 593.189C2724.8 596.475 2732.87 599.092 2736.07 599.576C2739.27 600.061 2745.38 600.159 2751.3 599.889C2745.38 600.157 2739.27 600.052 2736.07 599.567C2732.87 599.082 2724.8 596.472 2716.11 593.189Z" fill="white"/>
<path d="M1958.15 95.9307C1946.33 97.2679 1947 96.2029 1948.59 100.905C1951.51 116.88 1962.59 172.968 1962.59 172.968C1967.59 168.159 2032.9 141.717 2032.9 141.717L2016.93 228.472L2011.21 260.144C2023.92 259.139 2025.15 260.137 2054.06 265.777C2081.89 271.208 2089.44 270.334 2102.78 260.144C2110.78 254.035 2116.01 251.79 2124.48 250.832C2136.47 249.475 2139.8 251.389 2155.15 268.466C2159.01 272.753 2167.4 278.051 2174.87 280.907C2186.76 285.459 2189.86 285.654 2211.25 283.177C2230.74 280.92 2236.66 279.339 2246.79 273.685C2253.47 269.954 2263.94 265.886 2270.04 264.647C2280.91 262.442 2281.35 262.586 2291.28 271.516C2308.09 286.639 2315.75 287.58 2335.32 276.927C2350.1 268.884 2356.98 270.126 2382.47 285.454C2404.89 298.931 2421.15 303.308 2449.65 303.541C2465.41 303.669 2475.1 302.497 2490.01 298.656C2522.22 290.359 2540.08 287.637 2549.86 289.529C2554.84 290.492 2567.4 295.513 2577.78 300.688C2588.16 305.862 2601.81 310.816 2608.1 311.697C2614.4 312.578 2626.48 312.601 2634.95 311.749L2650.35 310.2L2639.41 286.866C2625.68 257.628 2606.76 223.473 2592.04 201.366C2582.76 187.43 2579.77 184.429 2575.43 184.734C2556.42 186.072 2539.38 181.099 2506.42 164.605C2486.83 154.799 2466.07 146.531 2450.54 142.355C2439.87 139.486 2432.88 139.639 2395.74 143.543C2345.79 148.794 2341.98 148.282 2289.67 129.242C2249.41 114.585 2233.33 109.709 2218.49 107.669C2202.71 105.499 2177.1 110.422 2165.63 117.836C2151.85 126.733 2142.97 126.87 2130.89 118.372C2112.18 105.202 2105.18 103.381 2075.46 111.283C2036.82 121.559 2034.41 120.567 1999.32 103.121C1981.99 94.5053 1969.39 94.6598 1958.15 95.9307Z" fill="#FF6D03"/>
<path d="M2160.07 401.64C2152.97 402.619 2144.63 405.862 2134 411.277C2120.03 418.387 2091.92 419.186 2062.92 417.446C2062.92 417.446 2056.97 454.759 2054.91 466.203C2024.41 466.116 2022.2 466.11 2022.2 466.11C2024.65 487.7 2034.42 533.529 2041.95 579.706C2044.91 597.843 2046.15 603.357 2046.33 603.572C2046.5 603.786 2061.96 589.987 2074.08 585.208C2074.08 585.208 2085.26 577.946 2115.92 583.149C2122.66 584.295 2129.59 584.101 2136.19 582.284C2165.5 574.211 2168.89 577.787 2188.5 567.822C2223 550.29 2244.71 547.641 2259.29 559.181C2262.32 561.572 2269.6 571.223 2275.48 580.627C2288.81 601.963 2293.22 604.67 2308.87 601.098C2317.48 599.131 2326.48 594.223 2342.37 582.841C2354.32 574.28 2372.48 563.066 2382.73 557.918C2420.23 539.076 2456.4 541.122 2471.54 562.948C2483.07 579.565 2488.86 580.415 2543.08 573.429C2570.58 569.885 2592.46 568.099 2597.54 568.985C2602.22 569.799 2610.57 573.812 2616.09 577.9C2628.07 586.768 2633.08 586.524 2650.16 576.235C2669.94 564.316 2684.35 563.794 2710.44 574.049C2722.01 578.595 2734.98 582.807 2739.27 583.412C2743.57 584.016 2753.06 583.941 2760.37 583.244C2772.52 582.084 2773.61 581.562 2773.1 577.122C2772.1 568.197 2755.76 533.656 2736.37 499.451C2725.82 480.825 2714.07 459.886 2710.26 452.921C2705.41 444.035 2702.16 440.39 2699.38 440.704C2697.2 440.951 2691.17 437.821 2685.97 433.748C2673.99 424.373 2664.08 424.058 2640.59 432.297C2618.31 440.109 2577.99 444.744 2557.41 441.857C2542.1 439.71 2526 433.717 2514.63 425.937C2508.25 421.573 2506.52 421.596 2460.99 426.685C2401.21 433.366 2396.72 432.644 2370.36 412.134C2363.56 406.848 2354.36 401.661 2349.9 400.607C2337.26 397.618 2312.71 403.372 2291.62 414.267C2261.36 429.894 2251.54 433.651 2236.01 435.547C2216.96 437.873 2205.14 432.821 2190.35 416.025C2180.35 404.665 2171.92 400.008 2160.07 401.64Z" fill="#1BC100"/>
<mask id="mask0_1582_158" style="mask-type:luminance" maskUnits="userSpaceOnUse" x="1941" y="85" width="841" height="543">
<path d="M1953.35 86.2247C1941.29 87.5895 1940.74 87.9248 1942.37 92.7359C1947.25 107.113 1956.57 148.471 1964.6 191.348C1969.55 217.795 1974.59 243.823 1975.79 249.186L1976.73 253.42L1976.66 253.429L1991.37 343.372L1996.24 446.481L1996.8 446.703C1996.97 448.782 1997.23 451.12 1997.54 453.907C1999.98 475.493 2002.54 548.252 2002.41 592.768C2002.36 611.422 2002.46 626.858 2002.64 627.073C2002.81 627.287 2012.32 622.886 2023.76 617.294C2057.19 600.952 2074.61 595.801 2119.44 589.021C2159.48 582.964 2161.07 582.526 2183.24 571.467C2218.57 553.844 2240.77 551.146 2255.66 562.65C2258.75 565.033 2266.16 574.664 2272.15 584.054C2285.73 605.359 2290.24 608.051 2306.24 604.439C2315.06 602.449 2324.28 597.525 2340.56 586.1C2352.8 577.507 2371.4 566.239 2381.89 561.064C2420.3 542.122 2457.27 544.074 2472.7 565.863C2484.45 582.453 2490.37 583.295 2545.84 576.168C2573.97 572.553 2596.35 570.708 2601.55 571.582C2606.33 572.385 2614.85 576.37 2620.49 580.445C2632.71 589.283 2637.84 589.032 2655.33 578.697C2675.6 566.726 2690.33 566.159 2716.99 576.348C2728.81 580.865 2742.07 585.052 2746.45 585.645C2750.84 586.239 2760.55 586.133 2768.03 585.417C2780.46 584.226 2781.57 583.7 2781.07 579.26C2780.06 570.337 2763.44 535.834 2743.7 501.674C2709.71 426.513 2679.43 349.29 2648.73 281.729C2634.72 251.815 2615.4 216.871 2600.37 194.252C2590.89 179.994 2587.84 176.923 2583.41 177.234C2564.01 178.598 2546.61 173.5 2512.97 156.619C2492.97 146.583 2471.77 138.123 2455.92 133.847C2445.03 130.91 2437.89 131.068 2399.99 135.052C2349.01 140.411 2345.12 139.886 2291.73 120.396C2250.63 105.392 2234.21 100.397 2219.07 98.3061C2202.96 96.0819 2176.83 101.107 2165.11 108.687C2151.05 117.786 2142 117.924 2129.67 109.228C2110.56 95.7507 2108.38 95.517 2078.05 103.593C2038.61 114.094 2021.48 112.423 1985.66 94.5669C1967.97 85.7489 1964.82 84.9275 1953.35 86.2247Z" fill="white"/>
</mask>
<g mask="url(#mask0_1582_158)">
<g opacity="0.4">
<g opacity="0.3" filter="url(#filter0_f_1582_158)">
<path fill-rule="evenodd" clip-rule="evenodd" d="M1947.12 84.821L1948.12 121.365C1948.12 121.365 2011.87 162.33 2040.39 187.579C2058.73 203.813 2078.04 220.319 2090.5 241.903C2103.89 265.106 2108.87 292.773 2114.93 319.123C2121.87 349.236 2122.98 380.474 2128.45 410.902C2134.15 442.57 2136.65 475.532 2148.55 505.285C2162.24 539.51 2206.23 598.735 2206.23 598.735L2226.07 579.828C2226.07 579.828 2178.84 461.766 2161.82 400.47C2148.78 353.551 2151.17 302.123 2133.03 257.083C2122.39 230.638 2104.17 208.166 2087.27 185.614C2063.03 153.27 2007.89 94.6088 2007.89 94.6088L1947.12 84.821ZM2081.18 76.3216L2045.47 93.6957C2045.47 93.6957 2200.41 192.188 2253.46 266.789C2279.61 303.568 2285.06 352.428 2302.45 394.556C2313.06 420.245 2323.28 446.219 2336.19 470.723C2353.3 503.211 2393.86 564.175 2393.86 564.175L2439.13 575.716C2439.13 575.716 2452.61 543.99 2449.42 527.902C2433.86 449.366 2355.84 400.681 2314.35 333.217C2296.93 304.896 2287.06 271.356 2266.72 245.296C2214.75 178.709 2081.18 76.3216 2081.18 76.3216ZM2186.6 64.3964C2186.6 64.3964 2279.19 206.92 2329.73 274.823C2368.95 327.531 2409.23 379.661 2453.75 427.427C2474.6 449.8 2503.88 463.822 2520.48 489.867C2539.11 519.095 2553.72 589.42 2553.72 589.42L2605.56 603.547C2605.56 603.547 2591.59 540.993 2576.53 513.522C2555.39 474.931 2521.07 446.26 2492.94 412.998C2446.37 357.914 2394.86 307.277 2351.92 248.983C2313.58 196.931 2248.48 84.0537 2248.48 84.0537L2186.6 64.3964ZM2419.63 98.0173L2362.58 121.142C2362.58 121.142 2443.09 249.137 2501.25 292.082C2518.54 304.852 2542.99 302.799 2560.4 315.387C2585.85 333.783 2606.44 360.266 2622.04 388.398C2634.52 410.91 2641.8 436.706 2646.1 462.322C2649.78 484.2 2645.89 506.702 2647.35 528.84C2648.72 549.763 2654.42 591.353 2654.42 591.353L2714.82 597.854C2714.82 597.854 2705.15 490.033 2684.55 441.309C2665.77 396.891 2634.16 359.048 2602.19 323.984C2565.13 283.328 2510.85 261.982 2477.18 218.15C2450.39 183.286 2419.63 98.0173 2419.63 98.0173Z" fill="white"/>
</g>
<g opacity="0.3" filter="url(#filter1_f_1582_158)">
<path fill-rule="evenodd" clip-rule="evenodd" d="M2000.9 78.0757L2109.12 190.735L2154.29 256.323L2168.59 363.106L2182.54 427.505L2247.7 552.107L2269.36 606.212L2342.68 626.2L2343.81 557.726L2244.97 429.873L2212.35 318.092L2172.18 237.798L2101.4 142.123L2023.35 80.2559L2000.9 78.0757ZM2114.02 77.0597L2165.15 156.114L2221.45 182.738L2256.54 237.684L2293.1 266.541L2370.81 403.855L2404.84 449.491L2460.09 525.72L2472.19 573.835L2547.43 591.246L2430.36 439.534L2312.05 257.327L2254.08 176.687L2177.43 107.6L2147.17 75.6691L2114.02 77.0597ZM2288.19 85.6391L2318.53 157.614L2361.07 258.852L2514.27 415.899L2583.21 495.299L2598.64 533.617L2609.09 586.631L2658.9 595.138L2651.17 487.61C2651.17 487.61 2507.96 360.056 2498.4 354.068C2488.84 348.08 2392.99 226.959 2392.99 226.959L2358.16 115.427L2288.19 85.6391ZM2702.73 413.431L2724.93 590.018L2800.87 574.365L2702.73 413.431Z" fill="black"/>
</g>
</g>
</g>
<path d="M2298.81 288.006C2290.63 288.536 2286.69 293.201 2280.35 305.156C2265.55 333.031 2270.22 361.86 2292.63 381.096C2302.27 389.374 2311.09 392.943 2335.27 398.362C2345.6 400.678 2355.33 403.425 2356.9 404.465C2358.47 405.504 2365.56 408.179 2372.65 410.412C2387.82 415.187 2395.59 413.565 2403.03 404.057C2410.63 394.363 2413.45 383.103 2411.98 368.358C2410.41 352.609 2406.63 343.371 2392.86 321.603C2374.51 292.601 2360.6 284.514 2338.9 290.221C2332.27 291.964 2324.74 291.766 2313.22 289.551C2307.13 288.379 2302.53 287.765 2298.81 288.006ZM2306.04 294.345C2308.2 294.327 2310.72 295.568 2310.94 297.506C2311.07 298.688 2310.18 299.148 2308.96 298.533C2306.16 297.116 2314.05 314.336 2319.22 320.922C2326.03 329.586 2325.18 323.833 2317.95 312.245C2310.23 299.89 2311.31 295.691 2321.48 298.514C2324.54 299.365 2329.91 298.988 2333.4 297.675C2336.9 296.362 2340.91 295.38 2342.31 295.492C2343.72 295.603 2345.36 294.581 2345.96 293.219C2346.7 291.526 2348.45 291.341 2351.48 292.635C2353.92 293.677 2356.65 293.926 2357.54 293.185C2359.35 291.677 2378.98 308.863 2379.37 312.301C2379.51 313.509 2381.77 316.309 2384.39 318.527C2387.01 320.745 2389.33 324.12 2389.54 326.026C2389.76 327.931 2391.7 331.741 2393.86 334.494C2396.03 337.247 2397.69 340.882 2397.56 342.569C2397.43 344.256 2398.89 347.982 2400.82 350.847C2403.44 354.749 2403.72 356.35 2401.9 357.231C2400.18 358.07 2400.23 359.164 2402.06 361.035C2404.9 363.924 2404.01 371.165 2400.77 371.531C2399.65 371.658 2399.51 373.587 2400.46 375.816C2402.78 381.262 2401.09 387.496 2397.16 387.94C2395.27 388.154 2394.59 389.563 2395.5 391.392C2397.32 395.077 2392.69 400.895 2389.3 399.18C2387.98 398.517 2387.03 399.051 2387.18 400.365C2387.54 403.538 2377.55 404.574 2375.34 401.595C2374.07 399.901 2373.27 400.01 2372.4 401.995C2371.56 403.888 2369.28 403.467 2364.97 400.628C2361.55 398.372 2358.83 397.226 2358.93 398.079C2359.02 398.933 2356.56 398.257 2353.45 396.578C2350.34 394.899 2346.33 393.691 2344.53 393.894C2341.87 394.195 2340.93 391.049 2339.42 376.758L2337.57 359.253L2342.97 373.538C2347.83 386.372 2354.48 398.858 2354.16 394.547C2354.1 393.626 2351.17 385.383 2347.66 376.232C2344.16 367.081 2341.79 358.941 2342.39 358.139C2342.99 357.338 2343.62 357.968 2343.8 359.544C2344.21 363.12 2364.73 398.466 2366.3 398.288C2367.56 398.145 2365.52 393.793 2356.62 377.669C2346.52 359.373 2345.41 356.801 2348.25 358.233C2349.82 359.029 2350.26 358.364 2349.39 356.522C2348.61 354.864 2346.85 353.914 2345.48 354.414C2344.12 354.914 2343.49 354.213 2344.09 352.857C2344.68 351.502 2345.46 350.359 2345.81 350.32C2346.16 350.28 2355.96 359.941 2367.59 371.788C2379.23 383.635 2389.98 393.931 2391.49 394.668C2395.04 396.402 2394.05 395.295 2367.84 368.06C2341.12 340.313 2341.81 337.758 2373.78 346.063C2385.82 349.19 2394.6 350.868 2393.3 349.79C2390.49 347.469 2370.49 341.367 2356.5 338.567L2346.59 336.582L2357.35 336.535C2363.27 336.511 2371.99 336.499 2376.73 336.507L2385.35 336.525L2376.49 334.363C2371.62 333.175 2363.3 332.503 2358.01 332.868C2348.79 333.504 2349.08 333.279 2364.93 327.392L2381.47 321.253L2368.6 323.727C2350.83 327.142 2344.85 330.713 2345.61 337.435C2346.37 344.217 2341.89 349.399 2336.06 348.469C2332.8 347.951 2331.03 349.454 2329.43 354.09C2326.42 362.85 2322.36 385.061 2323.59 386.099C2324.43 386.816 2327.11 377.476 2332.25 355.858C2332.79 353.597 2334.34 360.878 2335.7 372.039C2337.99 390.822 2337.31 395.964 2333.27 390.535C2332.39 389.345 2330.56 388.726 2329.22 389.158C2325.49 390.359 2316.85 387.842 2316.58 385.473C2316.45 384.315 2314.45 383.582 2312.14 383.843C2309.83 384.105 2306.08 381.958 2303.81 379.071C2301.55 376.185 2298.34 373.976 2296.69 374.162C2295.05 374.349 2292.8 371.583 2291.7 368.017C2290.6 364.45 2288.24 361.122 2286.45 360.62C2284.67 360.118 2283.16 357.394 2283.1 354.568C2283.04 351.741 2282.01 347.604 2280.8 345.374C2279.53 343.027 2279.39 339.556 2280.47 337.133C2281.6 334.587 2281.48 332.221 2280.14 331.094C2278.81 329.968 2279.14 326.909 2280.98 323.292C2282.65 320.021 2284.04 315.996 2284.08 314.349C2284.19 309.818 2288.23 304.147 2290.53 305.305C2291.64 305.868 2292.39 304.856 2292.18 303.053C2291.78 299.504 2297.07 295.653 2300.18 297.227C2301.24 297.76 2302.57 297.142 2303.13 295.857C2303.59 294.819 2304.75 294.353 2306.05 294.342L2306.04 294.345ZM2336.72 297.636L2334.75 307.002C2333.67 312.152 2332.94 318.92 2333.14 322.041C2333.37 325.735 2331.37 322.769 2327.4 313.546C2324.05 305.754 2321.04 300.634 2320.72 302.167C2320.15 304.787 2323.65 315.194 2327.66 322.854C2331.24 329.68 2322.53 327.044 2314.8 318.962C2310.54 314.512 2304.55 308.42 2301.48 305.422C2296.56 300.614 2296.7 301.091 2302.73 309.48C2306.49 314.712 2312.77 321.858 2316.68 325.36C2321.84 329.976 2323.12 332.284 2321.35 333.757C2319.89 334.973 2319.34 334.801 2319.99 333.325C2320.59 331.97 2315.08 326.956 2307.76 322.184C2283.81 306.583 2284.59 309.616 2308.9 326.629L2318.2 333.139L2306.43 329.766C2299.96 327.912 2293.03 326.627 2291.03 326.912C2289.03 327.196 2292.42 328.936 2298.55 330.776C2304.68 332.615 2311.71 334.773 2314.16 335.57C2316.97 336.479 2312.66 337.364 2302.59 337.951C2289.33 338.723 2288.06 339.078 2295.28 339.981C2300.09 340.582 2307.86 340.802 2312.56 340.469C2320.6 339.899 2320.33 340.141 2308.06 344.496C2300.88 347.044 2293.5 350.395 2291.67 351.943C2288.74 354.423 2288.83 354.562 2292.46 353.125C2301.21 349.661 2323.51 343.868 2324.59 344.78C2325.21 345.307 2324.34 345.894 2322.65 346.086C2319.26 346.468 2296.32 365.06 2297.74 366.264C2298.22 366.676 2304.83 362.524 2312.43 357.042L2326.23 347.072L2318.93 359.202C2314.92 365.873 2310.58 373.508 2309.3 376.167C2308.02 378.827 2312.54 373.268 2319.35 363.812C2327.94 351.894 2330.99 345.974 2329.27 344.518C2321.95 338.322 2330.66 325.967 2339.54 329.963C2343.91 331.937 2344.86 331.415 2361.26 318.045C2374.76 307.035 2371.13 306.97 2356.76 317.965L2344.71 327.186L2352.75 313.818C2363.95 295.219 2362.48 294.278 2350.11 312.121C2341.89 323.965 2340.47 325.288 2343.16 318.596C2346.93 309.22 2350.05 297.27 2348.69 297.424C2348.2 297.48 2345.02 304.267 2341.63 312.508C2338.24 320.749 2335.85 325.438 2336.33 322.927C2336.8 320.416 2337.08 313.698 2336.95 307.999L2336.72 297.636ZM2335.03 332.234C2334.13 332.401 2333.2 332.881 2332.11 333.672C2327.73 336.859 2327.6 341.065 2331.77 344.596C2333.34 345.927 2335.68 346.897 2336.97 346.751C2339.6 346.453 2343.89 341.352 2343.61 338.849C2343.51 337.945 2341.74 335.78 2339.69 334.04C2337.92 332.547 2336.53 331.955 2335.03 332.234ZM2351.35 343.88C2351.03 343.891 2350.79 343.944 2350.65 344.068C2347.64 346.57 2351.16 349.8 2375.39 366.802C2386.7 374.735 2396.55 381.155 2397.29 381.071C2398.66 380.916 2373.18 360.996 2363.17 354.388C2360.13 352.388 2358.1 350.155 2358.64 349.429C2359.18 348.703 2360.96 348.965 2362.59 350.01C2368.97 354.108 2396.87 365.19 2391.39 361.449C2381.35 354.594 2356.25 343.719 2351.35 343.88ZM2352.66 344.975C2353.83 344.843 2355.5 345.683 2356.36 346.843C2357.22 348.002 2356.97 349.059 2355.8 349.192C2354.63 349.324 2352.97 348.484 2352.11 347.324C2351.24 346.164 2351.49 345.108 2352.66 344.975ZM2351.04 359.777C2350.96 359.755 2350.89 359.766 2350.86 359.822C2349.95 361.031 2356.27 370.222 2376.07 396.517C2378 399.071 2379.9 400.727 2380.3 400.196C2380.69 399.665 2374.47 390.043 2366.47 378.813C2358.97 368.285 2352.33 360.117 2351.04 359.783L2351.04 359.777Z" fill="#0030AD"/>
<path d="M0 203.569H140.593V373.68C153.983 359.286 170.051 348.818 187.458 342.275C204.864 335.732 224.949 331.807 246.372 331.807C290.559 331.807 326.711 347.509 356.17 378.914C385.627 410.32 399.017 454.81 399.017 512.388C399.017 551.644 392.323 585.665 378.932 614.454C365.541 644.551 348.136 665.488 324.033 679.881C301.271 694.276 274.491 702.127 246.372 702.127C222.272 702.127 199.508 696.893 179.424 686.425C164.694 678.573 147.288 662.871 129.881 641.933V694.276H0V203.569ZM139.254 515.004C139.254 545.101 144.61 567.346 156.661 581.741C168.711 594.826 183.441 602.677 200.847 602.677C216.915 602.677 231.644 596.134 242.355 583.049C253.068 569.964 259.763 546.409 259.763 515.004C259.763 487.525 254.406 466.587 243.695 453.502C232.983 440.417 219.593 433.874 203.525 433.874C184.779 433.874 168.711 440.417 156.661 454.81C144.61 466.587 139.254 486.215 139.254 515.004Z" fill="white"/>
<path d="M826.155 549.019H547.647C550.326 571.266 555.681 586.967 566.394 597.436C579.783 613.14 597.19 620.991 618.613 620.991C632.004 620.991 645.393 617.064 657.444 610.522C665.478 606.597 673.512 598.745 681.546 588.277L818.121 600.054C796.698 635.384 772.596 661.555 741.799 675.95C712.342 692.96 669.495 700.813 614.596 700.813C566.394 700.813 528.901 694.27 500.784 681.185C472.664 668.098 449.902 647.161 432.494 618.374C413.749 589.585 405.715 555.562 405.715 516.306C405.715 461.347 424.46 415.548 460.613 381.526C496.767 347.503 547.647 330.492 610.579 330.492C662.8 330.492 702.969 338.343 733.765 354.046C764.562 369.749 785.987 391.993 802.055 420.782C818.121 449.569 826.155 487.519 826.155 534.626V549.019ZM684.223 483.593C681.546 457.422 674.85 439.102 662.8 427.325C650.749 415.548 636.021 410.313 615.936 410.313C594.511 410.313 575.766 419.474 563.715 436.484C555.681 446.953 550.326 462.656 547.647 483.593H684.223Z" fill="white"/>
<path d="M1014.95 203.568V338.349H1091.27V437.8H1014.95V563.42C1014.95 579.122 1016.29 588.283 1018.96 593.517C1022.98 601.368 1031.01 605.293 1043.07 605.293C1053.78 605.293 1067.17 602.677 1085.91 596.134L1096.62 690.35C1061.81 698.2 1029.68 700.818 1000.22 700.818C965.404 700.818 939.964 696.892 923.896 687.733C907.828 678.572 895.777 665.487 887.743 648.475C879.709 631.465 875.692 602.677 875.692 562.112V437.8H824.812V338.349H875.692V272.921L1014.95 203.568Z" fill="white"/>
<path d="M1310.06 203.568L1285.88 338.704H1362.43L1344.98 438.415H1268.42L1245.59 564.366C1242.91 580.111 1242.91 589.294 1244.25 594.543C1246.94 602.415 1255 606.351 1265.74 606.351C1276.48 606.351 1291.26 603.726 1310.06 597.168L1303.34 690.319C1267.08 698.191 1234.85 700.815 1205.3 700.815C1170.39 700.815 1146.21 696.879 1131.44 687.695C1116.67 678.51 1107.26 665.391 1101.89 648.335C1097.86 631.279 1097.86 602.415 1105.92 561.744L1128.75 437.104H1077.72L1095.18 337.392H1146.21L1158.3 271.792L1310.06 203.568Z" fill="url(#paint0_linear_1582_158)"/>
<path d="M1405.41 338.704H1545.08L1480.62 694.255H1342.29L1405.41 338.704ZM1429.59 203.568H1569.26L1553.14 296.72H1413.47L1429.59 203.568Z" fill="url(#paint1_linear_1582_158)"/>
<path d="M1621.63 203.568H1761.31L1672.67 694.255H1532.99L1621.63 203.568Z" fill="url(#paint2_linear_1582_158)"/>
<path d="M1989.62 203.568L1965.44 338.704H2041.99L2024.53 438.415H1947.98L1925.15 564.366C1922.46 580.111 1922.46 589.294 1923.8 594.543C1926.49 602.415 1934.55 606.351 1945.3 606.351C1956.03 606.351 1970.81 603.726 1989.62 597.168L1982.9 691.631C1946.64 699.502 1914.41 702.127 1884.85 702.127C1849.94 702.127 1825.77 698.191 1811 689.006C1796.21 679.823 1786.82 666.703 1781.45 649.646C1777.41 632.59 1777.41 603.726 1785.48 563.055L1808.3 438.415H1757.27L1774.73 338.704H1825.77L1837.85 273.104L1989.62 203.568Z" fill="url(#paint3_linear_1582_158)"/>
<defs>
<filter id="filter0_f_1582_158" x="1934.29" y="51.5678" width="793.352" height="564.808" filterUnits="userSpaceOnUse" color-interpolation-filters="sRGB">
<feFlood flood-opacity="0" result="BackgroundImageFix"/>
<feBlend mode="normal" in="SourceGraphic" in2="BackgroundImageFix" result="shape"/>
<feGaussianBlur stdDeviation="6.41435" result="effect1_foregroundBlur_1582_158"/>
</filter>
<filter id="filter1_f_1582_158" x="1991.09" y="65.8578" width="819.595" height="570.154" filterUnits="userSpaceOnUse" color-interpolation-filters="sRGB">
<feFlood flood-opacity="0" result="BackgroundImageFix"/>
<feBlend mode="normal" in="SourceGraphic" in2="BackgroundImageFix" result="shape"/>
<feGaussianBlur stdDeviation="4.90558" result="effect1_foregroundBlur_1582_158"/>
</filter>
<linearGradient id="paint0_linear_1582_158" x1="1077.72" y1="452.847" x2="2041.99" y2="452.847" gradientUnits="userSpaceOnUse">
<stop stop-color="#FFC700"/>
<stop offset="1" stop-color="#FFEA21"/>
</linearGradient>
<linearGradient id="paint1_linear_1582_158" x1="1077.72" y1="452.847" x2="2041.99" y2="452.847" gradientUnits="userSpaceOnUse">
<stop stop-color="#FFC700"/>
<stop offset="1" stop-color="#FFEA21"/>
</linearGradient>
<linearGradient id="paint2_linear_1582_158" x1="1077.72" y1="452.847" x2="2041.99" y2="452.847" gradientUnits="userSpaceOnUse">
<stop stop-color="#FFC700"/>
<stop offset="1" stop-color="#FFEA21"/>
</linearGradient>
<linearGradient id="paint3_linear_1582_158" x1="1077.71" y1="452.847" x2="2041.99" y2="452.847" gradientUnits="userSpaceOnUse">
<stop stop-color="#FFC700"/>
<stop offset="1" stop-color="#FFEA21"/>
</linearGradient>
</defs>
</svg>
