<svg width="125" height="33" viewBox="0 0 125 33" fill="none" xmlns="http://www.w3.org/2000/svg">
<g clip-path="url(#clip0_1_7094)">
<path d="M0 0.875H8.60636V11.5377C9.42602 10.6355 10.4096 9.97933 11.4752 9.56923C12.5407 9.15912 13.7702 8.91306 15.0816 8.91306C17.7865 8.91306 19.9995 9.89731 21.8028 11.8658C23.606 13.8343 24.4257 16.623 24.4257 20.232C24.4257 22.6926 24.0159 24.8251 23.1962 26.6296C22.3765 28.5161 21.311 29.8284 19.8356 30.7306C18.4422 31.6329 16.8029 32.125 15.0816 32.125C13.6063 32.125 12.2128 31.7969 10.9834 31.1408C10.0817 30.6486 9.01619 29.6644 7.95064 28.352V31.6329H0V0.875ZM8.5244 20.396C8.5244 22.2825 8.85226 23.6768 9.58995 24.5791C10.3276 25.3993 11.2293 25.8914 12.2948 25.8914C13.2784 25.8914 14.18 25.4813 14.8357 24.6611C15.4915 23.8409 15.9013 22.3645 15.9013 20.396C15.9013 18.6736 15.5734 17.3612 14.9177 16.541C14.262 15.7208 13.4423 15.3107 12.4587 15.3107C11.3112 15.3107 10.3276 15.7208 9.58995 16.623C8.85226 17.3612 8.5244 18.5915 8.5244 20.396Z" fill="white"/>
<path d="M50.5726 22.5285H33.5238C33.6878 23.9229 34.0156 24.9071 34.6714 25.5633C35.491 26.5476 36.5566 27.0397 37.868 27.0397C38.6877 27.0397 39.5073 26.7936 40.245 26.3835C40.7368 26.1375 41.2286 25.6453 41.7204 24.9892L50.0808 25.7274C48.7694 27.9419 47.294 29.5823 45.4088 30.4846C43.6056 31.5508 40.9827 32.043 37.6221 32.043C34.6714 32.043 32.3763 31.6329 30.6551 30.8127C28.9338 29.9924 27.5404 28.6801 26.4748 26.8757C25.3273 25.0712 24.8355 22.9386 24.8355 20.478C24.8355 17.0331 25.983 14.1624 28.1961 12.0299C30.4092 9.89731 33.5238 8.83103 37.3762 8.83103C40.5729 8.83103 43.0318 9.32316 44.917 10.3074C46.8022 11.2917 48.1137 12.686 49.0973 14.4905C50.0808 16.2949 50.5726 18.6736 50.5726 21.6263V22.5285ZM41.8843 18.4275C41.7204 16.7871 41.3105 15.6388 40.5729 14.9006C39.8352 14.1624 38.9336 13.8343 37.7041 13.8343C36.3926 13.8343 35.2451 14.4085 34.5074 15.4747C34.0156 16.1309 33.6878 17.1152 33.5238 18.4275H41.8843Z" fill="white"/>
<path d="M62.1297 0.875V9.32316H66.8018V15.5568H62.1297V23.4308C62.1297 24.415 62.2117 24.9892 62.3756 25.3173C62.6215 25.8094 63.1133 26.0554 63.851 26.0554C64.5067 26.0554 65.3264 25.8914 66.4739 25.4813L67.1296 31.3868C64.9985 31.8789 63.0314 32.043 61.2281 32.043C59.097 32.043 57.5397 31.7969 56.5561 31.2228C55.5725 30.6486 54.8348 29.8284 54.343 28.7621C53.8512 27.6959 53.6053 25.8914 53.6053 23.3488V15.5568H50.4907V9.32316H53.6053V5.22211L62.1297 0.875Z" fill="white"/>
<path d="M80.1947 0.875L78.7149 9.3454H83.401L82.3322 15.5954H77.6462L76.2486 23.4901C76.0842 24.477 76.0842 25.0526 76.1664 25.3816C76.3308 25.875 76.8241 26.1217 77.4818 26.1217C78.1395 26.1217 79.0438 25.9572 80.1947 25.5461L79.7837 31.3849C77.564 31.8783 75.5909 32.0428 73.7822 32.0428C71.6448 32.0428 70.1649 31.7961 69.2606 31.2204C68.3563 30.6447 67.7808 29.8224 67.452 28.7533C67.2053 27.6842 67.2053 25.875 67.6986 23.3257L69.0962 15.5132H65.9722L67.0409 9.26316H70.165L70.9049 5.15132L80.1947 0.875Z" fill="url(#paint0_linear_1_7094)"/>
<path d="M86.0318 9.3454H94.5817L90.6356 31.6316H82.1678L86.0318 9.3454ZM87.5116 0.875H96.0616L95.075 6.71382H86.525L87.5116 0.875Z" fill="url(#paint1_linear_1_7094)"/>
<path d="M99.2678 0.875H107.818L102.392 31.6316H93.8418L99.2678 0.875Z" fill="url(#paint2_linear_1_7094)"/>
<path d="M121.794 0.875L120.314 9.3454H125L123.931 15.5954H119.245L117.848 23.4901C117.683 24.477 117.683 25.0526 117.765 25.3816C117.93 25.875 118.423 26.1217 119.081 26.1217C119.738 26.1217 120.643 25.9572 121.794 25.5461L121.383 31.4671C119.163 31.9605 117.19 32.125 115.381 32.125C113.244 32.125 111.764 31.8783 110.86 31.3026C109.955 30.727 109.38 29.9046 109.051 28.8355C108.804 27.7664 108.804 25.9572 109.298 23.4079L110.695 15.5954H107.571L108.64 9.3454H111.764L112.504 5.23355L121.794 0.875Z" fill="url(#paint3_linear_1_7094)"/>
</g>
<defs>
<linearGradient id="paint0_linear_1_7094" x1="65.9722" y1="16.5" x2="125" y2="16.5" gradientUnits="userSpaceOnUse">
<stop stop-color="#FFC700"/>
<stop offset="1" stop-color="#FFEA21"/>
</linearGradient>
<linearGradient id="paint1_linear_1_7094" x1="65.9722" y1="16.5" x2="125" y2="16.5" gradientUnits="userSpaceOnUse">
<stop stop-color="#FFC700"/>
<stop offset="1" stop-color="#FFEA21"/>
</linearGradient>
<linearGradient id="paint2_linear_1_7094" x1="65.9722" y1="16.5" x2="125" y2="16.5" gradientUnits="userSpaceOnUse">
<stop stop-color="#FFC700"/>
<stop offset="1" stop-color="#FFEA21"/>
</linearGradient>
<linearGradient id="paint3_linear_1_7094" x1="65.9722" y1="16.5" x2="125" y2="16.5" gradientUnits="userSpaceOnUse">
<stop stop-color="#FFC700"/>
<stop offset="1" stop-color="#FFEA21"/>
</linearGradient>
<clipPath id="clip0_1_7094">
<rect width="125" height="31.25" fill="white" transform="translate(0 0.875)"/>
</clipPath>
</defs>
</svg>
