<svg width="82" height="48" fill="none" xmlns="http://www.w3.org/2000/svg"><path d="M16.214 31.385c0 .266-.74.485-2.22.654a45.51 45.51 0 0 1-4.474.219c-1.48 0-2.426-.06-2.838-.182-.412-.146-.619-.376-.619-.691V8.755c0-.533.704-1.054 2.11-1.564 1.407-.533 2.984-.8 4.73-.8 1.552 0 2.571.327 3.056.982.17.243.255.485.255.728v23.284Zm21.151.618c-.97.218-1.965.364-2.983.437a30.31 30.31 0 0 1-2.947.145c-.946 0-1.686-.024-2.22-.072-.509-.049-1.188-.17-2.037-.364a10.95 10.95 0 0 1-2.328-.8c-.704-.34-1.456-.837-2.256-1.492a9.117 9.117 0 0 1-1.965-2.329c-1.236-2.086-1.855-4.778-1.855-8.076 0-2.207.34-4.16 1.019-5.858.703-1.697 1.54-3.007 2.51-3.929a12.197 12.197 0 0 1 3.383-2.219c2.038-.922 4.087-1.383 6.149-1.383 2.959 0 5.081.243 6.367.728a4.362 4.362 0 0 1 1.564 1.019c.46.46.691 1.128.691 2 0 .874-.218 1.977-.655 3.311-.412 1.334-1.018 2.001-1.819 2.001-.242 0-1.14-.194-2.692-.582-1.552-.388-2.607-.582-3.165-.582-.849 0-1.577.473-2.183 1.419-.582.946-.873 2.292-.873 4.038 0 1.747.255 3.105.764 4.075.534.97 1.225 1.455 2.074 1.455.606 0 1.697-.242 3.274-.727 1.6-.51 2.535-.764 2.801-.764.752 0 1.334.69 1.747 2.073.436 1.383.655 2.498.655 3.347 0 .85-.267 1.528-.8 2.038-.51.485-1.25.849-2.22 1.091Zm24.093.255H46.033c-1.189 0-1.99-.085-2.401-.255-.413-.17-.619-.436-.619-.8V8.173c0-.63.279-1.079.837-1.346.582-.266 1.613-.4 3.092-.4h14.625c.51 0 .764.85.764 2.547 0 1.674-.109 2.959-.327 3.856-.218.873-.51 1.31-.873 1.31-1.577 0-4.233-.158-7.968-.473v2.438c3.59-.146 5.93-.219 7.022-.219.655 0 .982.764.982 2.292 0 1.528-.133 2.693-.4 3.493-.243.776-.582 1.164-1.019 1.164l-6.585-.145v2.328c4.22-.315 7.131-.473 8.732-.473.51 0 .764.849.764 2.547 0 1.698-.11 2.983-.328 3.856-.218.873-.509 1.31-.873 1.31Z" fill="#fff"/><path fill-rule="evenodd" clip-rule="evenodd" d="M14.686 38.064a51.765 51.765 0 0 1-5.166.258c-.806 0-1.555-.017-2.207-.058-.518-.034-1.44-.106-2.342-.37a6.116 6.116 0 0 1-.307-.1c-.792-.28-1.959-.832-2.965-1.957A6.656 6.656 0 0 1 0 31.385V8.755c0-3.152 2.074-4.99 2.98-5.661 1.027-.762 2.17-1.254 3.087-1.589C8.25.685 10.554.327 12.903.327c1.774 0 5.28.262 7.623 3.05.85-.56 1.745-1.049 2.684-1.466C25.958.671 28.849 0 31.835 0c3.04 0 6.114.217 8.501 1.116.255.096.505.2.748.315a8.354 8.354 0 0 1 .24-.116c1.894-.868 4.12-.951 5.618-.951h14.625A6.5 6.5 0 0 1 66.41 2.53c.934 1.038 1.346 2.148 1.54 2.792.387 1.293.446 2.648.446 3.652 0 1.834-.11 3.689-.5 5.29a9.86 9.86 0 0 1-.776 2.137c.093.677.112 1.291.112 1.777 0 .923-.038 1.9-.16 2.873a7.39 7.39 0 0 1 1.205 2.388c.388 1.294.446 2.649.446 3.653 0 1.838-.106 3.72-.508 5.327-.175.7-.508 1.808-1.22 2.875-.735 1.103-2.522 3.027-5.536 3.027H46.033c-.718 0-1.445-.024-2.132-.097-.591-.063-1.573-.2-2.578-.614a7.601 7.601 0 0 1-.674-.316 13.052 13.052 0 0 1-1.953.625c-1.248.28-2.517.467-3.802.563a36.35 36.35 0 0 1-3.46.167c-1.013 0-1.964-.025-2.768-.098l-.025-.002c-.89-.085-1.86-.271-2.814-.49a17.007 17.007 0 0 1-3.613-1.25 15.394 15.394 0 0 1-1.774-1.014c-.427.427-.82.707-1.04.851a7.61 7.61 0 0 1-2.025.918c-.885.261-1.86.404-2.69.5Zm1.357-6.468c-.297.173-.98.32-2.048.444-1.48.145-2.971.218-4.475.218-1.48 0-2.426-.06-2.838-.182-.412-.146-.618-.376-.618-.691V8.755c0-.533.703-1.054 2.11-1.564 1.406-.533 2.983-.8 4.73-.8 1.551 0 2.57.327 3.055.982.065.093.118.186.158.279.064.15.097.3.097.449v23.284c0 .074-.057.144-.171.21Zm6.234-2.02c.104.096.21.19.317.28.8.656 1.552 1.153 2.256 1.492.703.34 1.48.607 2.328.8.85.195 1.528.316 2.037.364.534.049 1.274.073 2.22.073.97 0 1.952-.048 2.947-.145a20.201 20.201 0 0 0 2.983-.437c.765-.191 1.387-.458 1.866-.8.128-.092.246-.189.353-.291.534-.51.8-1.189.8-2.038 0-.848-.218-1.964-.654-3.347-.413-1.382-.995-2.073-1.747-2.073-.145 0-.49.076-1.033.227-.452.127-1.041.305-1.768.537-1.577.485-2.668.727-3.274.727-.85 0-1.54-.485-2.074-1.455-.51-.97-.764-2.328-.764-4.075 0-1.746.291-3.092.873-4.038.606-.946 1.334-1.419 2.183-1.419.558 0 1.613.194 3.165.582.678.17 1.23.302 1.659.398.552.123.897.184 1.033.184.8 0 1.407-.667 1.82-2 .436-1.335.654-2.438.654-3.311 0-.666-.134-1.211-.401-1.637a2.07 2.07 0 0 0-.29-.364c-.46-.461-.982-.8-1.564-1.019a7.716 7.716 0 0 0-1.07-.307c-1.283-.28-3.048-.42-5.297-.42-2.062 0-4.111.46-6.149 1.382a12.197 12.197 0 0 0-3.409 2.244c-.959.92-1.787 2.222-2.484 3.904-.68 1.698-1.019 3.65-1.019 5.858 0 3.298.619 5.99 1.856 8.076a9.158 9.158 0 0 0 1.647 2.048Zm20.736 1.627c0 .364.206.63.619.8.387.16 1.116.244 2.188.254h15.638c.364 0 .655-.436.873-1.309.166-.662.269-1.562.309-2.699.012-.362.019-.747.019-1.157 0-1.698-.255-2.547-.764-2.547a51.215 51.215 0 0 0-2.186.059c-.156.007-.316.014-.482.023a242.84 242.84 0 0 0-6.064.391V22.69l6.585.145c.437 0 .776-.388 1.019-1.164.133-.399.233-.888.3-1.468.026-.232.048-.48.064-.742a19.961 19.961 0 0 0 .036-1.283c0-.294-.012-.56-.036-.797-.102-.996-.417-1.495-.946-1.495-.253 0-.572.004-.958.012a332.36 332.36 0 0 0-6.064.207v-2.438c2.508.212 4.53.353 6.064.422a49.706 49.706 0 0 0 1.904.051c.364 0 .655-.437.873-1.31.163-.671.266-1.56.307-2.667.014-.372.02-.768.02-1.189 0-1.698-.254-2.547-.764-2.547H46.942c-.362 0-.698.008-1.007.024-.95.05-1.646.175-2.085.377-.558.266-.837.715-.837 1.346v23.029Z" fill="url(#a)"/><path fill-rule="evenodd" clip-rule="evenodd" d="M14.686 38.064a51.765 51.765 0 0 1-5.166.258c-.806 0-1.555-.017-2.207-.058-.518-.034-1.44-.106-2.342-.37a6.116 6.116 0 0 1-.307-.1c-.792-.28-1.959-.832-2.965-1.957A6.656 6.656 0 0 1 0 31.385V8.755c0-3.152 2.074-4.99 2.98-5.661 1.027-.762 2.17-1.254 3.087-1.589C8.25.685 10.554.327 12.903.327c1.774 0 5.28.262 7.623 3.05.85-.56 1.745-1.049 2.684-1.466C25.958.671 28.849 0 31.835 0c3.04 0 6.114.217 8.501 1.116.255.096.505.2.748.315a8.354 8.354 0 0 1 .24-.116c1.894-.868 4.12-.951 5.618-.951h14.625A6.5 6.5 0 0 1 66.41 2.53c.934 1.038 1.346 2.148 1.54 2.792.387 1.293.446 2.648.446 3.652 0 1.834-.11 3.689-.5 5.29a9.86 9.86 0 0 1-.776 2.137c.093.677.112 1.291.112 1.777 0 .923-.038 1.9-.16 2.873a7.39 7.39 0 0 1 1.205 2.388c.388 1.294.446 2.649.446 3.653 0 1.838-.106 3.72-.508 5.327-.175.7-.508 1.808-1.22 2.875-.735 1.103-2.522 3.027-5.536 3.027H46.033c-.718 0-1.445-.024-2.132-.097-.591-.063-1.573-.2-2.578-.614a7.601 7.601 0 0 1-.674-.316 13.052 13.052 0 0 1-1.953.625c-1.248.28-2.517.467-3.802.563a36.35 36.35 0 0 1-3.46.167c-1.013 0-1.964-.025-2.768-.098l-.025-.002c-.89-.085-1.86-.271-2.814-.49a17.007 17.007 0 0 1-3.613-1.25 15.394 15.394 0 0 1-1.774-1.014c-.427.427-.82.707-1.04.851a7.61 7.61 0 0 1-2.025.918c-.885.261-1.86.404-2.69.5Zm1.357-6.468c-.297.173-.98.32-2.048.444-1.48.145-2.971.218-4.475.218-1.48 0-2.426-.06-2.838-.182-.412-.146-.618-.376-.618-.691V8.755c0-.533.703-1.054 2.11-1.564 1.406-.533 2.983-.8 4.73-.8 1.551 0 2.57.327 3.055.982.065.093.118.186.158.279.064.15.097.3.097.449v23.284c0 .074-.057.144-.171.21Zm6.234-2.02c.104.096.21.19.317.28.8.656 1.552 1.153 2.256 1.492.703.34 1.48.607 2.328.8.85.195 1.528.316 2.037.364.534.049 1.274.073 2.22.073.97 0 1.952-.048 2.947-.145a20.201 20.201 0 0 0 2.983-.437c.765-.191 1.387-.458 1.866-.8.128-.092.246-.189.353-.291.534-.51.8-1.189.8-2.038 0-.848-.218-1.964-.654-3.347-.413-1.382-.995-2.073-1.747-2.073-.145 0-.49.076-1.033.227-.452.127-1.041.305-1.768.537-1.577.485-2.668.727-3.274.727-.85 0-1.54-.485-2.074-1.455-.51-.97-.764-2.328-.764-4.075 0-1.746.291-3.092.873-4.038.606-.946 1.334-1.419 2.183-1.419.558 0 1.613.194 3.165.582.678.17 1.23.302 1.659.398.552.123.897.184 1.033.184.8 0 1.407-.667 1.82-2 .436-1.335.654-2.438.654-3.311 0-.666-.134-1.211-.401-1.637a2.07 2.07 0 0 0-.29-.364c-.46-.461-.982-.8-1.564-1.019a7.716 7.716 0 0 0-1.07-.307c-1.283-.28-3.048-.42-5.297-.42-2.062 0-4.111.46-6.149 1.382a12.197 12.197 0 0 0-3.409 2.244c-.959.92-1.787 2.222-2.484 3.904-.68 1.698-1.019 3.65-1.019 5.858 0 3.298.619 5.99 1.856 8.076a9.158 9.158 0 0 0 1.647 2.048Zm20.736 1.627c0 .364.206.63.619.8.387.16 1.116.244 2.188.254h15.638c.364 0 .655-.436.873-1.309.166-.662.269-1.562.309-2.699.012-.362.019-.747.019-1.157 0-1.698-.255-2.547-.764-2.547a51.215 51.215 0 0 0-2.186.059c-.156.007-.316.014-.482.023a242.84 242.84 0 0 0-6.064.391V22.69l6.585.145c.437 0 .776-.388 1.019-1.164.133-.399.233-.888.3-1.468.026-.232.048-.48.064-.742a19.961 19.961 0 0 0 .036-1.283c0-.294-.012-.56-.036-.797-.102-.996-.417-1.495-.946-1.495-.253 0-.572.004-.958.012a332.36 332.36 0 0 0-6.064.207v-2.438c2.508.212 4.53.353 6.064.422a49.706 49.706 0 0 0 1.904.051c.364 0 .655-.437.873-1.31.163-.671.266-1.56.307-2.667.014-.372.02-.768.02-1.189 0-1.698-.254-2.547-.764-2.547H46.942c-.362 0-.698.008-1.007.024-.95.05-1.646.175-2.085.377-.558.266-.837.715-.837 1.346v23.029Z" fill="url(#b)"/><path fill-rule="evenodd" clip-rule="evenodd" d="M75.622 22.086c1.68-2.92 2.617-5.013 2.22-7.632-.487-3.207-3.382-4.73-5.565-5.46-1.796-.6-3.51-.499-5.476.475-1.273.63-2.13 1.829-2.715 3.004l-9.404 18.853c-.584 1.174-.293 2.478.65 2.91l3.413 1.564c.942.43 2.181-.173 2.765-1.347l7.028-14.74c1.625-3.106 1.871-3.88 2.69-3.46.788.403-.051 1.827-.858 3.358-1.984 3.77 3.425 5.65 5.252 2.475Z" fill="#fff"/><path fill-rule="evenodd" clip-rule="evenodd" d="M64.85 27.433a22.146 22.146 0 0 0-4.842-6.782l-1.035 2.042c2.278 1.674 3.8 4.059 4.848 6.89l1.03-2.15Zm1.666-3.391c-1.34-2.732-3-4.914-4.842-6.782l-1.035 2.042c2.154 1.73 3.724 4.074 4.848 6.89l1.03-2.15Zm1.654-3.414c-1.303-2.62-2.969-4.776-4.816-6.697l-1.006 2.02c2.029 1.803 3.613 4.094 4.793 6.828l1.03-2.15Zm1.666-3.397c-1.267-2.417-2.83-4.559-4.619-6.489-.48.576-.862 1.195-1.207 1.829 2.044 1.855 3.574 4.148 4.75 6.74.334-.697.694-1.39 1.076-2.08Zm1.346-.961c.255-2.652.16-5.202-.284-7.648-.796-.068-2.589.148-3.383.546 1.506 2.334 2.4 4.827 2.646 7.488.403-.451.74-.563 1.021-.385Zm.314.611c2.048-1.337 4.034-2.75 5.54-4.756a7.32 7.32 0 0 0-2.77-2.227c-.61 2.448-1.745 4.477-2.974 6.428.166.078.228.27.204.555Zm-.4 1.367c1.873.644 3.829 1.094 5.96 1.13.605-1.247.843-2.425.905-3.572a23.485 23.485 0 0 1-6.456 1.33c-.104.375-.21.708-.41 1.112Zm-.85 1.606c.585 1.584 1.797 2.893 3.266 3.765 1.173-.05 1.837-.754 2.607-2.371-2.213-.1-3.872-1.09-5.318-2.456-.173.358-.357.712-.555 1.062Zm-7.201 11.418c-1.4-2.671-3.074-4.881-4.895-6.846l-1.035 2.042c2.008 1.912 3.63 4.237 4.901 6.936l1.029-2.132Zm-1.729 3.529c-1.343-2.7-2.992-4.993-4.928-6.904l-1.023 2.063c1.788 1.557 3.173 3.57 4.203 5.983.23-.007.4-.075.594-.162.324-.144.528-.303.771-.513.147-.149.278-.312.383-.467Zm-4.063.331c-.533-1.431-1.404-2.677-2.607-3.743-.244.747-.376 1.372-.123 2.015.394.776 1.054 1.112 1.893 1.396l.837.332Z" fill="#D5323F"/><path fill-rule="evenodd" clip-rule="evenodd" d="M75.623 22.092c1.68-2.92-1.76 3.157-3.852.161-1.124-1.61 1.635-3.381 1.724-6.198.06-1.93-1.011-2.518-2.45-2.078-1.343.41-2.188 2-2.772 3.175l-8.806 17.627c-.584 1.175-5.077-.969-4.135-.537l3.414 1.564c.942.431 2.18-.173 2.765-1.347l7.028-14.74c1.625-3.106 1.871-3.88 2.69-3.46.788.403-.052 1.827-.858 3.358-1.984 3.77 3.425 5.65 5.252 2.475Z" fill="#4300FF" fill-opacity=".1"/><path fill-rule="evenodd" clip-rule="evenodd" d="M75.622 22.086c1.628-2.947 2.617-5.013 2.22-7.632-.487-3.207-3.382-4.73-5.565-5.46-1.796-.6-3.51-.499-5.476.475-1.273.63-2.13 1.829-2.715 3.004l-9.404 18.853c-.584 1.174-.103 2.506.777 1.119l.883-3.15c1.636-3.742 2.01-4.505 2.594-5.68l3.869-7.65c1.624-3.107 2.746-5.921 6.738-6.578 1.983-.326 6.59 1.145 7.682 4.089 1.228 3.312-1.744 8.865-1.603 8.61Z" fill="#fff" fill-opacity=".13"/><path fill-rule="evenodd" clip-rule="evenodd" d="M45.981 14.977c.136-.102.95 1.915 2.337 2.119 1.505.22 3.578-.604 3.7-.649.046-.017-1.626 1.726-.94 3.004.507.944 2.4.433 2.461.597.075.198-1.499.963-1.282 2.624.1.768 2.02 1.123 2.035 1.216.012.088-2.107 2.194-2.135 3.115-.021.678 2.662.652 2.711.768.032.074-2.227.802-2.09 2.216.072.745.255 1.64.53 2.494.327 1.022-1.213 1.967-1.65 2.069-.47.109 1.4-1.2.86-1.636-.518-.417-1.402-1.437-2.158-2.029-.584-.457-2.588-.525-2.648-.573-.103-.081 1.231-1.713 1.073-2.222-.277-.887-2.834-1.257-2.859-1.363-.037-.156 2.107-.827 1.633-2.005-.653-1.624-3.302-1.271-3.313-1.263-.14.098 2.133-1.024 1.523-2.445-.46-1.071-2.337-1.12-2.448-1.236-.045-.047 1.982-.656 2.511-1.548.513-.864.106-3.22.15-3.253Z" fill="url(#c)"/><path fill-rule="evenodd" clip-rule="evenodd" d="M47.325 18.785c-.033.033 1.453 2.358 2.584 5.212.974 2.46 1.615 5.37 1.614 6.864 0 .457.154.91.625.83.472-.08.075-.347-.008-.797-.268-1.442-1.001-4.454-2.098-7.034-1.18-2.776-2.718-5.075-2.718-5.075Z" fill="#1B934D"/><path fill-rule="evenodd" clip-rule="evenodd" d="M73.485 31.662c.073.155-2.233.439-2.786 1.71-.599 1.38-.249 3.554-.232 3.682.007.047-1.402-1.969-2.905-1.627-1.11.252-1.041 2.18-1.228 2.199-.224.022-.637-1.663-2.424-1.86-.825-.093-1.668 1.65-1.768 1.641-.095-.009-1.773-2.54-2.728-2.792-.702-.185-1.335 2.377-1.468 2.396-.085.012-.29-2.317-1.8-2.531a14.488 14.488 0 0 0-2.733-.103c-1.147.063-1.756-1.634-1.754-2.074.002-.476.909 1.625 1.497 1.216.562-.39 1.844-.985 2.647-1.56.621-.446 1.184-2.338 1.248-2.383.11-.079 1.486 1.59 2.056 1.562.994-.047 2.01-2.392 2.125-2.39.172.002.346 2.208 1.693 2.044 1.856-.227 2.138-2.836 2.132-2.849-.068-.156.544 2.282 2.178 2.047 1.23-.177 1.742-1.954 1.891-2.03.06-.032.198 2.046 1 2.768.776.699 3.335.885 3.359.934Z" fill="url(#d)"/><path fill-rule="evenodd" clip-rule="evenodd" d="M69.176 32.016c-.026-.039-2.818.81-6.075 1.192-2.807.33-6.003.23-7.562-.134-.477-.111-.988-.075-1.02.394-.032.468.344.156.834.186 1.572.096 4.896.131 7.859-.285 3.186-.447 5.964-1.353 5.964-1.353Z" fill="#1B934D"/><path fill-rule="evenodd" clip-rule="evenodd" d="M65.882 17.88c.149.053-1.253 1.65-.819 2.8.471 1.248 2.103 2.421 2.196 2.492.035.027-2.222-.396-3.035.744-.6.842.68 2.03.563 2.156-.139.152-1.5-.67-2.853.3-.626.448-.09 2.078-.164 2.133-.071.052-2.842-.534-3.659-.109-.6.313.605 2.336.525 2.43-.05.06-1.68-1.3-2.854-.512a13.85 13.85 0 0 0-1.942 1.61c-.747.745-2.25.035-2.53-.246-.304-.305 1.663.479 1.805-.142.136-.595.635-1.76.819-2.62.141-.666-.682-2.219-.667-2.287.025-.118 2.037.103 2.41-.264.653-.64-.15-2.76-.07-2.83.12-.103 1.65 1.198 2.47.267 1.128-1.283-.347-3.122-.359-3.126-.147-.058 1.833 1.122 2.804-.03.732-.868-.053-2.316 0-2.456.021-.057 1.445 1.185 2.456 1.154.98-.03 2.857-1.481 2.904-1.464Z" fill="url(#e)"/><path fill-rule="evenodd" clip-rule="evenodd" d="M63.155 20.753c-.043-.009-1.417 2.246-3.408 4.488-1.716 1.931-3.973 3.829-5.276 4.552-.4.222-.726.559-.449.877.278.319.336-.11.692-.393 1.14-.902 3.444-2.919 5.212-5.002 1.901-2.24 3.229-4.522 3.229-4.522Z" fill="#1B934D"/><path d="M56.916 36.284c1.461-.927 1.869-2.797.91-4.178-.959-1.38-2.92-1.748-4.382-.822-1.461.927-1.869 2.797-.91 4.178.959 1.38 2.92 1.748 4.382.822Z" fill="#87000B"/><path d="M56.877 35.905c1.376-.872 1.757-2.637.851-3.942-.905-1.304-2.755-1.654-4.131-.782-1.377.873-1.758 2.638-.852 3.942.906 1.305 2.755 1.655 4.132.782Z" fill="url(#f)"/><path d="M57.09 26.543c-1.228-1.219-3.258-1.256-4.533-.084a2.967 2.967 0 0 0-.085 4.33c1.228 1.22 3.258 1.257 4.533.084a2.967 2.967 0 0 0 .085-4.33Z" fill="#87000B"/><path d="M56.927 26.82c-1.192-1.182-3.14-1.237-4.352-.123-1.212 1.114-1.228 2.976-.036 4.159 1.191 1.182 3.14 1.238 4.351.123 1.212-1.114 1.228-2.976.037-4.158Z" fill="url(#g)"/><path d="M53.09 30.466c-.926-1.285-2.812-1.578-4.213-.655-1.4.923-1.784 2.712-.858 3.996.927 1.285 2.813 1.578 4.214.655 1.4-.923 1.785-2.712.858-3.996Z" fill="#87000B"/><path d="M53.09 30.466c-.927-1.284-2.726-1.635-4.018-.783-1.293.851-1.59 2.583-.663 3.867.927 1.284 2.726 1.635 4.019.783 1.292-.851 1.589-2.583.662-3.867Z" fill="url(#h)"/><path d="M29.08 26.501c1.15-.349 2.385-.713 3.58-.352.84.142 1.574.62 2.142 1.24 1.18 1.127 1.915 2.79 1.658 4.433-.13.522.115 1.131.63 1.332.47.063.983.116 1.426-.096.674-.314 1.4-.52 2.138-.605.64-.042 1.265.162 1.865.362.827-.72 2.192-.63 2.904.21.538.493.626 1.243.835 1.9.11.426.663.511.992.307.477-.526.55-1.268.913-1.859.59-1.012 1.62-1.803 2.789-1.992.727-.156 1.56.06 2.084.6.394.546.551 1.29.362 1.943-.08.502-.358.943-.478 1.432-.03.825-.02 1.665.143 2.477.79-1.594 1.614-3.184 2.666-4.624.578-.701.402-1.71.91-2.449.483-.844 1.478-1.37 2.447-1.261 1.446.167 2.556 1.51 2.693 2.92a1.902 1.902 0 0 1 1.887-.381c.512.14.853.578 1.165.978 1.056-.716 2.444-1.253 3.694-.727 1.144.478 1.807 1.694 1.94 2.885.986-1.476 2.48-2.73 4.265-3.05 1.255-.334 2.717-.004 3.594.989.522.603 1.128 1.14 1.564 1.816.375.59.369 1.316.572 1.965.345.452.695.997.532 1.594-.063.638-.544 1.091-1.028 1.45-.734 2.285-2.132 4.468-4.22 5.728-1.785 1.077-4.247.82-5.737-.651a6.599 6.599 0 0 1-3.92 1.523c-1.18-.053-2.463-.376-3.219-1.355-.561-.624-.682-1.477-.838-2.268a290.02 290.02 0 0 0-1.315 2.986c-.2.49-.701.829-1.232.811-.592.045-1.085-.348-1.646-.449-.903.097-1.768.517-2.694.428-.823-.092-1.675-.278-2.326-.824-2.341 1.25-5.474 1.44-7.682-.19-1.05.805-2.333 1.326-3.666 1.323-.93-.084-1.888-.327-2.6-.964-1.117.657-2.46 1.176-3.764.826-1.356-.213-2.449-1.328-2.845-2.612-1.504 1.828-3.903 2.79-6.248 2.689-1.216-.127-2.468-.433-3.436-1.221-1.888-1.48-2.671-3.994-2.567-6.324a14.113 14.113 0 0 1 2.298-6.76c.846-1.272 1.792-2.493 2.91-3.54 1.178-1.005 2.388-2.055 3.864-2.593Z" fill="url(#i)"/><path d="M30.767 27.77c.924-.228 1.998-.218 2.782.389.711.593 1.332 1.345 1.61 2.241.26.835.054 1.735-.321 2.5a22.304 22.304 0 0 0-.969 2.432c-.093.313-.452.532-.77.411-.79-.284-1.257-1.156-1.215-1.972.056-1.31.85-2.431 1.062-3.706.037-.259.038-.605-.237-.737-.447-.117-.896.113-1.295.293-1.271.658-2.364 1.614-3.344 2.645-1.618 1.72-2.885 3.823-3.355 6.157-.29 1.433-.43 2.994.15 4.374.3.712.977 1.384 1.805 1.294 1.212-.143 2.155-1.04 2.926-1.916.757-.885 1.358-1.89 1.895-2.92.143-.384.714-.544.983-.197.394.528.41 1.252.262 1.871-.272 1.043-.94 1.934-1.695 2.68-1.442 1.459-3.68 2.065-5.664 1.552-1.03-.26-1.923-.946-2.488-1.84-.985-1.484-1.137-3.363-.84-5.082.515-3 2.229-5.678 4.378-7.78 1.243-1.166 2.636-2.315 4.34-2.69Zm27.619 3.27c1.414-.116 2.315 2.05 1.193 2.96-.714.468-1.68-.033-2.025-.734-.456-.78-.078-1.992.831-2.226Z" fill="#fff"/><path d="M49.238 34.313c.385-.714 1.069-1.335 1.892-1.46.314-.062.744.05.78.425.085.761-.63 1.322-.572 2.076-.061 1.783.288 3.543.377 5.32a6.404 6.404 0 0 1-.39 2.585c.715-.611 1.582-1.234 1.776-2.215.64-1.907 1.602-3.691 2.591-5.437.357-.55.626-1.193 1.144-1.614.309-.235.66.055.838.309.518.711.464 1.684.177 2.476-.423 1.081-1.002 2.092-1.53 3.125-.52 1.007-1.112 2.029-1.202 3.184-.008.283-.034.624.193.837.403.138.814-.106 1.136-.33.761-.6 1.418-1.387 1.672-2.34 1.068-2.527 2.43-4.922 3.866-7.255.182-.283.445-.704.845-.552.66.481.734 1.4.715 2.153.912-.856 1.914-1.745 3.168-2.02.896-.18 1.594.675 1.768 1.467.216.77-.196 1.509-.528 2.178-.857 1.724-2.06 3.323-2.437 5.246-.058.437-.073 1.083.42 1.276.465.03.856-.282 1.187-.572.851-.796 1.474-1.798 2.045-2.804.288-.488.309-1.07.5-1.593.52-1.514 1.352-2.954 2.546-4.037.9-.81 2.114-1.39 3.348-1.212.922.142 1.368 1.05 2.011 1.614.758.68.778 1.77.713 2.708.224.055.446.114.668.179v.112c-.103.393-.49.55-.829.688-.474 1.774-1.372 3.472-2.73 4.727-.814.745-1.902 1.32-3.038 1.154-1.192-.133-2.188-.99-2.711-2.04-.866 1.06-2.04 1.941-3.406 2.2-.953.139-2.108.005-2.726-.819-.589-.819-.48-1.913-.212-2.83.527-1.771 1.419-3.41 2.383-4.978.207-.332.38-.686.497-1.06-1.13.492-2.016 1.382-2.85 2.265-1.876 2.01-2.888 4.616-4.006 7.083-.103.244-.304.524-.608.454-.403-.12-.618-.507-.853-.821-1.067.734-2.457 1.187-3.73.748-.55-.178-.948-.639-1.175-1.158-1.428 1.248-3.441 1.737-5.293 1.374-1.036-.187-1.952-.82-2.54-1.685-.982 1.199-2.503 2.192-4.115 1.89-.851-.125-1.525-.79-1.746-1.607-.687.65-1.464 1.24-2.376 1.527-.922.287-2.048.055-2.653-.735-.66-.854-.692-2.02-.488-3.04.362-1.855 1.51-3.427 2.72-4.83 1.06-1.161 2.318-2.294 3.895-2.648.92-.224 1.97.188 2.336 1.097.254-.415.434-.91.833-1.211.354-.229.77.06.935.384.523.934.332 2.09-.119 3.012-.851 1.717-2.02 3.278-2.656 5.1-.168.527-.322 1.106-.172 1.656.122.367.579.229.827.087.862-.513 1.424-1.387 1.96-2.21.316-.438.136-1.012.31-1.5.185-.615.578-1.263 1.22-1.466.354-.088.477.304.58.555.786-1.202 1.587-2.394 2.317-3.63.279-.48.22-1.078.502-1.562Zm26.512 1.361a3 3 0 0 0 .438 1.701c.213-.537.37-1.11.361-1.693-.004-.215-.112-.463-.339-.524-.281-.024-.434.281-.46.516Zm-36.813 1.83c-1.266 1.525-2.424 3.258-2.759 5.248-.055.478-.143 1.07.258 1.43 1.042-.192 1.64-1.174 2.226-1.96.901-1.343 1.714-2.752 2.33-4.247.24-.632.5-1.292.454-1.98.014-.243-.25-.448-.473-.3-.822.41-1.43 1.136-2.035 1.809ZM71.51 41.49c-.053.537-.13 1.144.17 1.627.239.349.728.22 1.03.03.723-.447 1.231-1.158 1.687-1.86.543-.904 1.065-1.836 1.377-2.85-.817-.49-1.474-1.258-1.722-2.19-1.369 1.423-2.25 3.293-2.542 5.243Zm-22.565-3.175c-.712 1.148-1.419 2.298-2.18 3.415.218.71.467 1.462 1.017 1.99.21.204.608.357.82.07.311-.432.352-.99.418-1.502.107-1.323.019-2.652-.075-3.973Z" fill="#fff"/><path fill-rule="evenodd" clip-rule="evenodd" d="M21.708.112c-2.241-.285-4.38-.083-6.272 1.275-1.226.88-2.196 2.685-3.353 4.355-.547.79-.654 1.919-.83 3.217-.16 1.173-.434 2.513-.08 3.34.49 1.15.871 2.01.938 3.19.145 2.53 1.902 5.517 2.324 6.401.33.688.436.57.768.08.29-.43.804-1.125 1.114-2 .186-.527.253-.726.45-1.293.1-.284.478-.84.58-1.118.887-2.395 1.76-4.421 3.07-2.215 1.2 2.028 7.944-3.22 7.944-7.186 0-1.237 2.689-2.651 2.08-3.668-.645-1.076-1.962-2.286-3.543-2.844C25.106 1.013 23.192.3 21.708.112Z" fill="url(#j)"/><path fill-rule="evenodd" clip-rule="evenodd" d="M14.206 18.72c-1.763-.156-2.068-5.374-1.747-2.455.361 3.277 1.751 6.039 2.452 6.106.664.063 1.858-3.57 2.8-6.622.184-.594-.775-1.152-1.395-2.051-.759-1.1-1.14-2.576-1.818-3.578-.29-.428-.76-.95-.753-.85.012.182.416.76.998 1.923.446.89.99 2.226 1.58 3.353.63 1.203.533 2.525.409 2.997-.308 1.169-1.826 1.24-2.526 1.178Z" fill="#9C020E"/><path fill-rule="evenodd" clip-rule="evenodd" d="M20.853 2.329c-4.247-.205-6.654 1.853-6.476 2.232.163.348 2.668-.77 6.219-.496 3.226.248 4.377.94 4.997.28.937-.996-1.152-1.843-4.74-2.016Z" fill="url(#k)"/><path fill-rule="evenodd" clip-rule="evenodd" d="M28.466 4.146c1.234-1.463 3.231-1.882 4.327.02.158.275.33.527.535.742 1.077 1.136.597 2.662-.555 3.667l-1.226 1.239c-.837 1.391-1.887 2.59-3.369 3.401-1.017 1.553-2.168 2.837-3.572 3.607-.511.854-1.15 1.66-2.263 2.285-.611.617-1.425.664-2.212.902-.935.284-1.515-.148-2.115-.922-.28-.36-.424-.769-.676-1.042-1.034-1.121-.601-2.403.696-3.367.5-1.475 1.613-2.424 3.059-3.088.621-1.669 1.754-2.857 3.465-3.5.609-1.41 1.483-2.574 3.06-3.089l.846-.855Z" fill="url(#l)"/><path fill-rule="evenodd" clip-rule="evenodd" d="M28.67 4.054c.673-.68 2.321-1.206 3.058-.599.751.62.396 1.12.58 1.297.241.232.497.115.728.266.442.289.798.814.785 1.42-.016.749-.47 1.445-.971 1.951l-1.325.76-1.263 1.577c-.58.942-1.28 1.72-2.17 2.185-1.107 1.338-2.091 2.697-3.812 3.761-.536.33-.989.796-1.506 1.182-.54.545-1.07 1.57-1.766 1.596-.44.017-1.53.255-1.997-.35-.687-.89.043-1.307-.272-1.226-.848.218-1.284-.612-1.37-1.123-.136-.812.538-1.038.832-1.542.256-.437.333-1.034.667-1.372.614-1.05 1.52-1.547 2.52-1.863 1.087-1.56 2.078-2.752 3.362-3.65.799-1.567 1.836-2.6 3.1-3.13l.82-1.14Z" fill="url(#m)"/><path fill-rule="evenodd" clip-rule="evenodd" d="M29.21 4.484c.298-.3.59-.605.935-.574.263.024.576.335.835.455.783.362.737 1.165-.134 1.802-.024.519-.419.955-1.278 1.29-.739 1.408-1.656 2.667-3.289 3.32-.363.789-1.411.84-2.004.554-.787-.38-.341-1.659.368-2.236.604-1.05 1.328-1.79 2.18-2.2.6-1.17 1.439-1.894 2.387-2.41Z" fill="url(#n)"/><path fill-rule="evenodd" clip-rule="evenodd" d="M13.58 22.654c.298-.302.567-.66.97-.763.5-.128 1.144.06 1.56.348.1.07.118.335.207.427l.093.096c.198.204.2.375.437.694.546.734.257 1.547-.45 2.096-.326.254-.712.398-1.02.54-.659.304-1.32.174-1.717-.553l-.093-.096c-.241-.248-.572-.623-.658-.937-.136-.502-.075-1.111.231-1.551.1-.144.312-.173.44-.301Z" fill="url(#o)"/><path fill-rule="evenodd" clip-rule="evenodd" d="M13.83 22.4c.272-.274.687-.223 1.054-.242.47-.025.902-.037 1.277.348l.082.085c.273.28.322.746.408 1.126.125.548.163 1.009-.325 1.249-.388.19-.951.253-1.49.387a.373.373 0 0 1-.222-.037c-.2-.084-.447-.28-.618-.456l-.083-.085c-.366-.377-.33-.807-.31-1.277.016-.384-.05-.816.228-1.098Z" fill="url(#p)"/><path fill-rule="evenodd" clip-rule="evenodd" d="M14.49 22.492c.188-.19.427.02.683.008.324-.014.67-.196.927.07l.058.058c.287.295.165.592.111.953-.032.22.112.526-.05.69a1.03 1.03 0 0 1-.779.301c-.296-.01-.48-.409-.832-.379l-.057-.059c-.27-.278-.157-.53-.125-.875.023-.242-.114-.589.063-.767Z" fill="url(#q)"/><defs><linearGradient id="a" x1="0" y1="0" x2="34.361" y2="38.649" gradientUnits="userSpaceOnUse"><stop stop-color="#17B9FF"/><stop offset="1" stop-color="#1769FF"/></linearGradient><linearGradient id="b" x1="0" y1="0" x2="34.361" y2="38.649" gradientUnits="userSpaceOnUse"><stop stop-color="#17B9FF"/><stop offset="1" stop-color="#1769FF"/></linearGradient><linearGradient id="c" x1="46.236" y1="10.78" x2="53.446" y2="35.443" gradientUnits="userSpaceOnUse"><stop stop-color="#017431"/><stop offset=".54" stop-color="#016D2E"/><stop offset="1" stop-color="#005423"/></linearGradient><linearGradient id="d" x1="77.803" y1="32.927" x2="50.324" y2="34.419" gradientUnits="userSpaceOnUse"><stop stop-color="#017431"/><stop offset=".54" stop-color="#016D2E"/><stop offset="1" stop-color="#005423"/></linearGradient><linearGradient id="e" x1="69.655" y1="16.038" x2="53.38" y2="35.247" gradientUnits="userSpaceOnUse"><stop stop-color="#017431"/><stop offset=".54" stop-color="#016D2E"/><stop offset="1" stop-color="#005423"/></linearGradient><linearGradient id="i" x1="20" y1="26" x2="35.782" y2="55.015" gradientUnits="userSpaceOnUse"><stop stop-color="#17B9FF"/><stop offset="1" stop-color="#1769FF"/></linearGradient><linearGradient id="j" x1="15.44" y1="19.703" x2="21.129" y2="-2.789" gradientUnits="userSpaceOnUse"><stop stop-color="#B3000E"/><stop offset=".52" stop-color="#D22D3B"/><stop offset="1" stop-color="#DD3E4B"/></linearGradient><linearGradient id="k" x1="24.968" y1="2.888" x2="13.124" y2="9.403" gradientUnits="userSpaceOnUse"><stop stop-color="#F1717B" stop-opacity=".39"/><stop offset="1" stop-color="#D73542" stop-opacity=".39"/></linearGradient><linearGradient id="l" x1="17.344" y1="20.526" x2="29.158" y2="5.309" gradientUnits="userSpaceOnUse"><stop stop-color="#B4C9EC"/><stop offset="1" stop-color="#E9F1FF"/></linearGradient><linearGradient id="n" x1="21.29" y1="14.642" x2="29.012" y2="3.581" gradientUnits="userSpaceOnUse"><stop stop-color="#ECF3FF"/><stop offset=".53" stop-color="#FAFCFF"/><stop offset="1" stop-color="#fff"/></linearGradient><linearGradient id="o" x1="11.647" y1="27.607" x2="17.246" y2="20.641" gradientUnits="userSpaceOnUse"><stop stop-color="#C3D9FF"/><stop offset="1" stop-color="#ECF3FF"/></linearGradient><linearGradient id="q" x1="15.957" y1="22.627" x2="14.258" y2="25.087" gradientUnits="userSpaceOnUse"><stop stop-color="#fff"/><stop offset="1" stop-color="#F6F9FF"/></linearGradient><radialGradient id="f" cx="0" cy="0" r="1" gradientUnits="userSpaceOnUse" gradientTransform="matrix(5.30092 -3.25213 3.14997 5.13441 55.32 33.694)"><stop stop-color="#EB1E2E"/><stop offset="1" stop-color="#930D18"/></radialGradient><radialGradient id="g" cx="0" cy="0" r="1" gradientUnits="userSpaceOnUse" gradientTransform="rotate(-134.366 33.482 2.822) scale(6.39826 6.25095)"><stop stop-color="#EB1E2E"/><stop offset=".48" stop-color="#D31928"/><stop offset="1" stop-color="#930D18"/></radialGradient><radialGradient id="h" cx="0" cy="0" r="1" gradientUnits="userSpaceOnUse" gradientTransform="matrix(-3.45856 -4.94705 4.81772 -3.36815 50.9 31.93)"><stop stop-color="#EB1E2E"/><stop offset=".44" stop-color="#D11927"/><stop offset="1" stop-color="#930D18"/></radialGradient><radialGradient id="m" cx="0" cy="0" r="1" gradientUnits="userSpaceOnUse" gradientTransform="rotate(-132.488 15.25 -.19) scale(10.5037 10.7999)"><stop stop-color="#fff"/><stop offset="1" stop-color="#D0E1FF"/></radialGradient><radialGradient id="p" cx="0" cy="0" r="1" gradientUnits="userSpaceOnUse" gradientTransform="matrix(-2.78129 -2.45584 2.1998 -2.49133 14.954 23.805)"><stop stop-color="#fff"/><stop offset="1" stop-color="#D7E6FF"/></radialGradient></defs></svg>