<?xml version="1.0" standalone="no"?>
<!DOCTYPE svg PUBLIC "-//W3C//DTD SVG 20010904//EN"
 "http://www.w3.org/TR/2001/REC-SVG-20010904/DTD/svg10.dtd">
<svg version="1.0" xmlns="http://www.w3.org/2000/svg"
 width="225.000000pt" height="225.000000pt" viewBox="0 0 225.000000 225.000000"
 preserveAspectRatio="xMidYMid meet">

<g transform="translate(0.000000,225.000000) scale(0.100000,-0.100000)"
fill="#fff" stroke="none">
<path d="M310 2241 c-111 -35 -233 -181 -279 -333 -28 -92 -36 -223 -22 -332
39 -290 204 -564 556 -925 378 -388 750 -600 1121 -642 170 -19 324 35 454
157 73 69 109 127 110 174 0 73 -17 97 -219 300 -199 201 -237 230 -301 230
-57 0 -104 -30 -206 -132 l-102 -101 -91 52 c-272 156 -452 332 -613 598 l-77
128 99 101 c128 129 153 190 116 277 -17 41 -358 391 -411 422 -46 27 -99 37
-135 26z m257 -293 c170 -169 193 -196 193 -224 0 -28 -17 -49 -127 -157
l-127 -126 29 -53 c228 -422 424 -618 852 -854 l52 -29 129 128 c105 104 134
127 158 127 24 0 60 -31 221 -192 230 -230 226 -220 129 -314 -67 -66 -139
-109 -221 -130 -65 -18 -113 -17 -221 1 -329 58 -686 278 -1023 631 -282 295
-440 544 -487 764 -18 87 -18 251 1 325 9 33 27 84 42 112 32 65 151 183 184
183 16 0 78 -55 216 -192z"/>
</g>
</svg>
