<svg width="30" height="30" viewBox="0 0 30 30" fill="none" xmlns="http://www.w3.org/2000/svg">
<path fill-rule="evenodd" clip-rule="evenodd" d="M29.9989 14.2422C29.9986 14.4946 29.9983 14.7472 29.9983 15C29.9983 15.2827 29.9988 15.5651 29.9992 15.8473C30.0018 17.632 30.0045 19.4063 29.9008 21.1917C29.7844 23.5933 29.2403 25.721 27.4804 27.4809C25.7243 29.2371 23.5929 29.785 21.1913 29.9013C19.3761 30.0034 17.5724 30.0015 15.7574 29.9994C15.5051 29.9992 15.2526 29.9989 14.9997 29.9989C14.7474 29.9989 14.4953 29.9992 14.2434 29.9994C12.4309 30.0015 10.6268 30.0035 8.80816 29.9013C6.40659 29.785 4.27894 29.2409 2.51903 27.4809C0.762878 25.7247 0.215018 23.5933 0.0986915 21.1917C-0.00344161 19.3763 -0.00143995 17.5696 0.000568969 15.7564C0.000848146 15.5044 0.00112746 15.2523 0.00112746 15C0.00112746 14.7477 0.000848068 14.4956 0.000568851 14.2437C-0.00144003 12.4311 -0.00343961 10.6269 0.0986915 8.80832C0.215018 6.40669 0.759125 4.27901 2.51903 2.51907C4.27519 0.76288 6.40659 0.21501 8.80816 0.0986813C10.6234 -0.00344864 12.4271 -0.00145227 14.242 0.000556588C14.4944 0.000835872 14.7469 0.0011154 14.9997 0.0011154C15.252 0.0011154 15.5041 0.000835995 15.7561 0.000556774C17.5686 -0.00145215 19.3727 -0.00345176 21.1913 0.0986813C23.5929 0.21501 25.7205 0.759127 27.4804 2.51907C29.2366 4.27525 29.7844 6.40669 29.9008 8.80832C30.0029 10.6236 30.0009 12.4273 29.9989 14.2422ZM25.5629 25.5671C26.092 25.0418 26.4222 24.5314 26.6962 23.8485C27.3707 22.1509 27.3346 18.4467 27.3113 16.0513C27.3075 15.6614 27.3041 15.3062 27.3041 15C27.3041 14.6928 27.3075 14.3364 27.3114 13.945C27.3347 11.5487 27.3709 7.84448 26.6999 6.14777C26.426 5.46481 26.0958 4.95822 25.5667 4.42911C25.0413 3.9 24.531 3.56978 23.848 3.29584C22.1514 2.6249 18.4472 2.66102 16.051 2.68439C15.6596 2.68821 15.3031 2.69168 14.996 2.69168C14.6888 2.69168 14.3324 2.68821 13.941 2.68439C11.5448 2.66102 7.8406 2.6249 6.14391 3.29584C5.46097 3.56978 4.95438 3.90375 4.42528 4.42911C3.89619 4.95446 3.56597 5.46481 3.29204 6.14777C2.62111 7.84448 2.65723 11.5487 2.6806 13.945C2.68442 14.3364 2.68789 14.6929 2.68789 15C2.68789 15.3072 2.68442 15.6636 2.6806 16.0549C2.65723 18.4505 2.62112 22.1523 3.29204 23.8522C3.56597 24.5352 3.89619 25.0418 4.42528 25.5709C4.95063 26.1 5.46097 26.4302 6.14391 26.7042C7.8406 27.3751 11.5448 27.339 13.941 27.3156C14.3324 27.3118 14.6888 27.3083 14.996 27.3083C15.3022 27.3083 15.6574 27.3118 16.0472 27.3156C18.4426 27.3389 22.1468 27.3749 23.8443 26.7004C24.5272 26.4265 25.0338 26.0962 25.5629 25.5671ZM21.8788 9.37189C22.6257 9.28034 23.3375 9.07684 23.9998 8.77562C23.5047 9.53505 22.8786 10.2019 22.1571 10.7357C22.1642 10.8982 22.1678 11.0615 22.1678 11.2257C22.1678 16.2299 18.4533 22 11.6607 22C9.57519 22 7.63407 21.3731 5.99976 20.2986C6.28866 20.3336 6.5826 20.3516 6.88068 20.3516C8.61093 20.3516 10.2032 19.7461 11.4671 18.7304C9.85104 18.7 8.48727 17.6052 8.01729 16.1008C8.24283 16.1449 8.47413 16.1687 8.71209 16.1687C9.04887 16.1687 9.37512 16.1225 9.68499 16.0359C7.9956 15.6878 6.72264 14.1574 6.72264 12.3227C6.72264 12.3067 6.72264 12.2909 6.72306 12.2751C7.22094 12.5587 7.79037 12.729 8.39571 12.7487C7.40481 12.0696 6.75285 10.9106 6.75285 9.5968C6.75285 8.90279 6.93501 8.25235 7.25289 7.69308C9.07431 9.98413 11.7954 11.4917 14.8646 11.6496C14.8016 11.3725 14.7689 11.0835 14.7689 10.7867C14.7689 8.69542 16.4225 7 18.4619 7C19.524 7 20.4838 7.45978 21.1574 8.19577C21.9986 8.02596 22.7889 7.71089 23.5025 7.27687C23.2268 8.16117 22.6412 8.90325 21.8788 9.37189Z" fill="#B9C5E1"/>
</svg>
